<svg width="432" height="200" viewBox="0 0 432 200" fill="none" xmlns="http://www.w3.org/2000/svg">
<g clip-path="url(#clip0_36_114997)">
<path d="M378.765 19H53.2347C50.4669 19 48.2231 21.1332 48.2231 23.7647V176.235C48.2231 178.867 50.4669 181 53.2347 181H378.765C381.533 181 383.777 178.867 383.777 176.235V23.7647C383.777 21.1332 381.533 19 378.765 19Z" fill="#51C56A"/>
<path d="M48.2231 23.1739C48.2231 20.8687 50.4669 19 53.2347 19H378.765C381.533 19 383.777 20.8687 383.777 23.1739V67H48.2231V23.1739Z" fill="#8AD49A"/>
<path d="M48.2231 163H383.777V174.647C383.777 178.156 381.523 181 378.743 181H53.2564C50.4766 181 48.2231 178.156 48.2231 174.647V163Z" fill="#8AD49A"/>
<path d="M0 137.939L68.1371 129.875L134.504 117.992L199.102 127.753L279.628 78.3415L358.826 55L415.459 142L486.251 97.0146" stroke="#6C11C9" stroke-width="2.24845"/>
<path d="M134.623 120C135.733 120 136.633 119.104 136.633 118C136.633 116.895 135.733 116 134.623 116C133.513 116 132.614 116.895 132.614 118C132.614 119.104 133.513 120 134.623 120Z" fill="#51C46A" stroke="#6C11C9" stroke-width="1.49896"/>
<path d="M278.288 81C279.398 81 280.298 80.105 280.298 79C280.298 77.895 279.398 77 278.288 77C277.178 77 276.279 77.895 276.279 79C276.279 80.105 277.178 81 278.288 81Z" fill="#51C46A" stroke="#6C11C9" stroke-width="1.49896"/>
<path d="M358.66 57C359.771 57 360.67 56.1046 360.67 55C360.67 53.8954 359.771 53 358.66 53C357.55 53 356.651 53.8954 356.651 55C356.651 56.1046 357.55 57 358.66 57Z" fill="#8AD49A" stroke="#6C11C9" stroke-width="1.49896"/>
<path d="M64.2976 133C65.4074 133 66.3069 132.104 66.3069 131C66.3069 129.895 65.4074 129 64.2976 129C63.1879 129 62.2883 129.895 62.2883 131C62.2883 132.104 63.1879 133 64.2976 133Z" fill="#51C46A" stroke="#6C11C9" stroke-width="1.49896"/>
<path d="M414.921 145C416.031 145 416.93 144.105 416.93 143C416.93 141.895 416.031 141 414.921 141C413.811 141 412.912 141.895 412.912 143C412.912 144.105 413.811 145 414.921 145Z" fill="white" stroke="#6C11C9" stroke-width="1.49896"/>
<path d="M196.912 130C198.022 130 198.921 129.104 198.921 128C198.921 126.895 198.022 126 196.912 126C195.802 126 194.902 126.895 194.902 128C194.902 129.104 195.802 130 196.912 130Z" fill="#51C46A" stroke="#6C11C9" stroke-width="1.49896"/>
</g>
<defs>
<clipPath id="clip0_36_114997">
<rect width="432" height="200" fill="white"/>
</clipPath>
</defs>
</svg>
