<svg width="432" height="200" viewBox="0 0 432 200" fill="none" xmlns="http://www.w3.org/2000/svg">
<path opacity="0.5" fill-rule="evenodd" clip-rule="evenodd" d="M216 194.792C268.352 194.792 310.792 152.352 310.792 100C310.792 47.648 268.352 5.20833 216 5.20833C163.648 5.20833 121.208 47.648 121.208 100C121.208 152.352 163.648 194.792 216 194.792ZM216 200C271.228 200 316 155.228 316 100C316 44.7715 271.228 0 216 0C160.772 0 116 44.7715 116 100C116 155.228 160.772 200 216 200Z" fill="url(#paint0_linear_41_115420)"/>
<g filter="url(#filter0_d_41_115420)">
<circle cx="216" cy="100" r="64.5833" fill="white"/>
</g>
<path d="M196.195 103.734V96.3437C196.195 95.6458 196.242 94.875 196.336 94.0312L189.32 103.734H196.195ZM202.399 103.734V105.969C202.399 106.177 202.331 106.359 202.195 106.516C202.06 106.661 201.867 106.734 201.617 106.734H199.555V112.25H196.195V106.734H186.664C186.404 106.734 186.175 106.656 185.977 106.5C185.779 106.333 185.654 106.13 185.602 105.891L185.195 103.937L195.899 89.6406H199.555V103.734H202.399ZM209.542 97.8594C210.042 97.7552 210.521 97.6823 210.979 97.6406C211.437 97.5885 211.88 97.5625 212.307 97.5625C213.495 97.5625 214.542 97.7396 215.448 98.0937C216.354 98.4479 217.115 98.9375 217.729 99.5625C218.344 100.187 218.807 100.922 219.12 101.766C219.432 102.599 219.589 103.5 219.589 104.469C219.589 105.667 219.375 106.76 218.948 107.75C218.531 108.74 217.948 109.589 217.198 110.297C216.448 110.995 215.557 111.536 214.526 111.922C213.505 112.307 212.391 112.5 211.182 112.5C210.474 112.5 209.802 112.427 209.167 112.281C208.531 112.135 207.932 111.943 207.37 111.703C206.818 111.453 206.302 111.172 205.823 110.859C205.354 110.536 204.932 110.198 204.557 109.844L205.745 108.203C205.995 107.849 206.323 107.672 206.729 107.672C206.99 107.672 207.255 107.755 207.526 107.922C207.797 108.089 208.104 108.271 208.448 108.469C208.802 108.667 209.213 108.849 209.682 109.016C210.161 109.182 210.734 109.266 211.401 109.266C212.109 109.266 212.734 109.151 213.276 108.922C213.818 108.693 214.266 108.375 214.62 107.969C214.984 107.552 215.255 107.062 215.432 106.5C215.62 105.927 215.714 105.307 215.714 104.641C215.714 103.411 215.354 102.453 214.635 101.766C213.927 101.068 212.875 100.719 211.479 100.719C210.406 100.719 209.307 100.917 208.182 101.312L205.776 100.625L207.651 89.6562H218.807V91.2969C218.807 91.849 218.635 92.2969 218.292 92.6406C217.948 92.9844 217.365 93.1562 216.542 93.1562H210.338L209.542 97.8594ZM232.966 95.125C232.966 95.9792 232.82 96.75 232.528 97.4375C232.247 98.125 231.867 98.7135 231.388 99.2031C230.909 99.6823 230.351 100.052 229.716 100.312C229.081 100.573 228.419 100.703 227.732 100.703C226.982 100.703 226.289 100.573 225.653 100.312C225.018 100.052 224.466 99.6823 223.997 99.2031C223.539 98.7135 223.179 98.125 222.919 97.4375C222.659 96.75 222.528 95.9792 222.528 95.125C222.528 94.25 222.659 93.4583 222.919 92.75C223.179 92.0417 223.539 91.4427 223.997 90.9531C224.466 90.4635 225.018 90.0885 225.653 89.8281C226.289 89.5573 226.982 89.4219 227.732 89.4219C228.482 89.4219 229.174 89.5573 229.81 89.8281C230.456 90.0885 231.013 90.4635 231.482 90.9531C231.95 91.4427 232.315 92.0417 232.575 92.75C232.836 93.4583 232.966 94.25 232.966 95.125ZM229.997 95.125C229.997 94.5208 229.935 94.0156 229.81 93.6094C229.695 93.2031 229.534 92.875 229.325 92.625C229.127 92.375 228.888 92.1979 228.607 92.0937C228.336 91.9792 228.044 91.9219 227.732 91.9219C227.419 91.9219 227.127 91.9792 226.857 92.0937C226.586 92.1979 226.351 92.375 226.153 92.625C225.966 92.875 225.815 93.2031 225.7 93.6094C225.586 94.0156 225.528 94.5208 225.528 95.125C225.528 95.7083 225.586 96.1979 225.7 96.5937C225.815 96.9792 225.966 97.2917 226.153 97.5312C226.351 97.7708 226.586 97.9427 226.857 98.0469C227.127 98.151 227.419 98.2031 227.732 98.2031C228.044 98.2031 228.336 98.151 228.607 98.0469C228.888 97.9427 229.127 97.7708 229.325 97.5312C229.534 97.2917 229.695 96.9792 229.81 96.5937C229.935 96.1979 229.997 95.7083 229.997 95.125ZM240.482 90.2656C240.617 90.1094 240.773 89.9687 240.95 89.8437C241.138 89.7187 241.398 89.6562 241.732 89.6562H244.544L227.763 111.672C227.627 111.839 227.466 111.979 227.278 112.094C227.091 112.198 226.862 112.25 226.591 112.25H223.716L240.482 90.2656ZM245.732 106.937C245.732 107.792 245.586 108.562 245.294 109.25C245.013 109.937 244.633 110.526 244.153 111.016C243.674 111.495 243.117 111.87 242.482 112.141C241.846 112.401 241.185 112.531 240.497 112.531C239.747 112.531 239.054 112.401 238.419 112.141C237.784 111.87 237.232 111.495 236.763 111.016C236.304 110.526 235.945 109.937 235.685 109.25C235.424 108.562 235.294 107.792 235.294 106.937C235.294 106.062 235.424 105.271 235.685 104.562C235.945 103.854 236.304 103.255 236.763 102.766C237.232 102.276 237.784 101.901 238.419 101.641C239.054 101.37 239.747 101.234 240.497 101.234C241.247 101.234 241.94 101.37 242.575 101.641C243.221 101.901 243.773 102.276 244.232 102.766C244.7 103.255 245.065 103.854 245.325 104.562C245.596 105.271 245.732 106.062 245.732 106.937ZM242.747 106.937C242.747 106.333 242.69 105.828 242.575 105.422C242.461 105.016 242.299 104.687 242.091 104.437C241.893 104.187 241.653 104.01 241.372 103.906C241.101 103.792 240.81 103.734 240.497 103.734C240.185 103.734 239.893 103.792 239.622 103.906C239.351 104.01 239.117 104.187 238.919 104.437C238.721 104.687 238.565 105.016 238.45 105.422C238.346 105.828 238.294 106.333 238.294 106.937C238.294 107.521 238.346 108.01 238.45 108.406C238.565 108.802 238.721 109.12 238.919 109.359C239.117 109.599 239.351 109.771 239.622 109.875C239.893 109.979 240.185 110.031 240.497 110.031C240.81 110.031 241.101 109.979 241.372 109.875C241.653 109.771 241.893 109.599 242.091 109.359C242.299 109.12 242.461 108.802 242.575 108.406C242.69 108.01 242.747 107.521 242.747 106.937Z" fill="#B8B6BF"/>
<defs>
<filter id="filter0_d_41_115420" x="130.584" y="19.7917" width="170.833" height="170.833" filterUnits="userSpaceOnUse" color-interpolation-filters="sRGB">
<feFlood flood-opacity="0" result="BackgroundImageFix"/>
<feColorMatrix in="SourceAlpha" type="matrix" values="0 0 0 0 0 0 0 0 0 0 0 0 0 0 0 0 0 0 127 0" result="hardAlpha"/>
<feOffset dy="5.20833"/>
<feGaussianBlur stdDeviation="10.4167"/>
<feColorMatrix type="matrix" values="0 0 0 0 0 0 0 0 0 0 0 0 0 0 0 0 0 0 0.1 0"/>
<feBlend mode="normal" in2="BackgroundImageFix" result="effect1_dropShadow_41_115420"/>
<feBlend mode="normal" in="SourceGraphic" in2="effect1_dropShadow_41_115420" result="shape"/>
</filter>
<linearGradient id="paint0_linear_41_115420" x1="239.711" y1="44.3299" x2="295.381" y2="171.134" gradientUnits="userSpaceOnUse">
<stop stop-color="#FF9B26" stop-opacity="0"/>
<stop offset="1" stop-color="#FF773C"/>
</linearGradient>
</defs>
</svg>
