<svg width="432" height="200" viewBox="0 0 432 200" fill="none" xmlns="http://www.w3.org/2000/svg">
<rect x="48" y="19" width="336" height="162" rx="5" fill="#F2F2F2"/>
<path d="M352.52 81.1886C353.484 81.029 356.688 79.016 357.738 78.9407C358.815 78.8668 360.049 78.719 360.672 78.1751C361.283 77.6327 363.325 76.2495 362.971 75.3967C362.616 74.544 361.907 73.075 361.907 73.075C361.283 72.5429 360.403 72.4572 360.049 71.8394C359.695 71.2217 359.157 70.1473 358.546 70.53C357.921 70.9128 356.773 71.5306 356.773 70.6039C356.773 69.6773 356.32 68.8379 355.794 69.1349C355.272 69.4556 354.192 69.7527 354.192 70.8389C354.192 71.9252 354.816 74.0016 354.192 74.6918C353.583 75.3967 353.229 75.6317 353.144 76.3972C353.044 77.1628 353.314 77.1628 352.689 78.6333C352.065 80.1023 351.54 81.3379 352.52 81.1886Z" fill="#DEF4AD"/>
<path d="M342.551 65.381C342.183 65.9249 341.744 67.4691 341.034 68.1593C340.325 68.8642 339.616 69.7789 340.24 69.9385C340.864 70.0996 341.574 69.6297 341.744 70.7173C341.928 71.7917 342.452 72.7921 343.077 72.9517C343.699 73.101 345.388 73.4837 346.182 73.9522C346.976 74.4221 348.394 75.0398 349.642 74.9527C350.875 74.8787 352.293 74.1 352.023 73.5694C351.769 73.0256 350.25 71.1 350.605 70.3951C350.96 69.7035 351.144 69.5558 351.229 68.5435C351.314 67.543 352.023 66.5426 351.229 65.9249C350.437 65.3071 349.728 64.8372 349.273 65.381C348.832 65.9249 346.437 67.7026 346.891 66.6165C347.331 65.5421 347.415 64.5417 347.415 64.5417C347.415 64.2195 347.601 63.7629 346.351 64.1456C345.118 64.5417 342.892 64.8372 342.551 65.381Z" fill="#DEF4AD"/>
<path d="M398.571 166.304C397.623 165.538 396.09 163.686 396.453 162.98C396.816 162.276 397.259 162.09 397.259 160.934C397.259 159.78 397.108 157.806 397.471 157.1C397.845 156.395 398.934 156.466 398.279 154.861C397.623 153.265 396.23 151.219 395.505 151.353C394.769 151.475 393.306 152.498 393.527 151.16C393.749 149.819 394.335 148.029 394.92 147.579C396.161 146.619 397.764 145.791 398.641 145.146C398.7 145.104 398.77 145.053 398.84 145.003C398.618 144.656 397.975 143.633 397.647 143.121C397.248 142.498 396.383 142.426 395.821 142.426C395.272 142.426 394.874 140.83 394.874 140.279C394.874 139.727 395.435 139.654 395.75 139.245C396.068 138.826 394.241 137.998 393.69 137.579C393.129 137.17 393.212 136.126 393.212 135.718C393.212 135.299 392.978 134.265 391.947 133.427C390.918 132.598 390.521 133.988 389.656 134.123C388.778 134.265 388.544 132.873 387.992 132.394C387.431 131.913 386.249 133.366 385.851 133.713C385.454 134.05 385.055 133.713 384.272 133.222C383.477 132.741 384.272 131.975 384.657 131.566C385.055 131.146 382.844 130.942 382.131 130.871C381.417 130.799 380.551 129.695 380.151 128.937C379.754 128.171 379.356 128.243 379.122 127.548C378.889 126.862 378.093 126.924 377.613 126.514C377.146 126.094 376.35 125.471 375.484 125.063C374.607 124.643 374.771 123.395 374.771 122.711C374.771 122.014 373.341 120.982 372.394 120.358C371.447 119.734 371.832 119.591 371.762 119.243C371.681 118.906 370.966 118.835 370.487 118.486C370.019 118.138 369.855 117.587 369.704 116.963C369.539 116.34 368.276 115.716 367.561 115.654C366.849 115.582 366.929 116.963 366.849 117.587C366.767 118.21 365.502 117.791 364.238 117.382C362.975 116.963 363.606 115.654 363.606 114.754C363.606 113.853 361.068 114.13 360.037 113.916C359.007 113.711 358.223 113.853 357.194 113.853C356.165 113.853 355.602 115.931 355.134 116.554C354.655 117.167 354.655 117.454 354.97 118.282C355.287 119.11 353.544 120.633 352.84 121.392C352.127 122.156 352.758 122.782 352.758 123.61C352.758 124.438 352.127 124.438 351.495 124.786C350.851 125.134 350.851 125.41 350.699 126.033C350.535 126.647 350.301 126.237 349.587 125.819C348.874 125.41 348.874 124.019 348.641 123.467C348.406 122.916 347.446 124.234 347.131 124.643C346.815 125.063 345.316 125.615 344.286 125.685C343.257 125.747 343.257 126.79 342.707 127.413C342.145 128.037 341.595 128.037 340.8 128.037C340.005 128.037 338.659 126.996 338.587 126.31C338.505 125.615 338.587 122.782 338.659 121.944C338.74 121.114 338.985 117.863 339.056 116.34C339.139 114.815 337.873 114.958 336.844 114.611C335.814 114.264 335.335 113.027 335.018 112.26C334.704 111.502 335.265 110.95 335.58 110.387C335.896 109.835 335.65 109.212 335.335 108.731C335.019 108.249 333.837 108.454 332.808 108.179C331.777 107.902 332.491 107.074 332.491 106.236C332.491 105.408 332.246 104.855 331.777 104.375C331.297 103.884 330.584 102.922 330.115 102.575C329.635 102.227 328.139 102.575 327.343 102.575C326.546 102.575 327.343 101.05 328.208 100.294C329.086 99.5272 326.629 98.628 326.395 98.1476C326.149 97.6566 325.446 98.2806 324.732 98.7001C324.019 99.1184 322.591 98.5558 321.959 98.5558C321.328 98.5558 321.012 98.628 320.298 98.8432C319.585 99.0479 318.474 98.7711 318.076 98.076C317.677 97.3798 318.32 95.5913 318.32 95.0993C318.32 94.6194 318.707 93.9953 319.351 92.9518C319.983 91.9205 318.954 91.5006 318.391 91.1533C317.841 90.8145 317.922 90.2625 317.922 89.3633C317.922 88.4629 317.524 88.596 316.413 88.2487C315.313 87.8998 316.261 87.8399 316.331 85.5493C316.413 83.2677 315.149 84.3112 314.353 84.2391C313.57 84.1691 314.202 83.0631 314.518 82.7158C314.833 82.3685 315.384 81.7444 316.096 81.1924C316.81 80.6404 315.945 78.011 315.781 76.9686C315.629 75.9363 315.313 75.7931 314.916 75.1075C314.518 74.4129 314.436 74.0651 314.353 72.9606C314.284 71.8567 313.722 71.0274 313.254 70.6085C312.773 70.1891 312.061 69.0852 311.978 68.4616C311.908 67.8375 312.693 67.7039 313.487 67.4287C314.284 67.1519 314.6 66.3237 314.985 65.6291C315.384 64.9329 316.731 65.3523 317.677 65.3523C318.638 65.3523 318.474 64.3099 318.474 63.4096C318.474 62.5087 318.24 62.1726 317.922 61.6816C317.607 61.2006 318.391 60.8523 319.034 60.7102C319.667 60.5771 319.034 59.0537 319.034 58.5728C319.034 58.0818 320.381 57.3247 321.246 56.845C322.111 56.3532 322.591 55.1773 322.989 54.7687C323.388 54.349 322.674 53.4497 321.959 53.2453C321.246 53.03 320.848 52.6923 320.765 52.0683C320.697 51.4455 320.381 50.6172 320.381 49.921C320.381 49.2261 319.105 48.6742 318.391 48.1934C317.677 47.7015 316.413 47.0175 315.945 46.4645C315.465 45.9127 315.231 45.1455 315.231 44.5937C315.231 44.0419 314.6 43.4179 314.119 42.7229C313.64 42.0377 313.804 41.4846 313.804 40.7175C313.804 39.9614 313.487 39.062 313.487 39.062L313.512 38.9079C312.913 38.8161 312.387 38.7341 312.199 38.7341C311.686 38.7341 310.668 39.051 311.253 39.757C311.837 40.4618 312.634 41.4846 312.422 41.9349C312.199 42.3742 310.515 43.019 310.082 43.4692C309.637 43.9085 310.292 44.7369 308.831 44.9314C307.368 45.1247 306.057 45.3804 305.905 45.8307C305.765 46.2699 305.765 47.5596 304.887 47.8752C304.01 48.1934 304.149 47.4874 304.149 46.7202C304.149 45.9531 304.664 44.7369 305.25 44.2254C305.835 43.7139 306.127 42.3742 306.853 42.1185C307.589 41.8628 308.76 41.8628 308.914 40.9732C309.052 40.0739 309.052 39.379 309.567 38.8675C310.082 38.3561 310.668 37.3944 310.668 36.7508C310.668 36.1158 311.1 35.0941 311.685 34.5827C312.271 34.0712 313.219 33.1707 314.025 32.2824C314.833 31.3819 315.196 30.9316 315.348 29.9809C315.488 29.0192 316.145 28.509 315.348 27.9975C314.541 27.4861 314.097 27.5473 314.248 26.8413C314.389 26.1463 314.611 24.9289 313.874 24.2853C313.149 23.6503 313.077 23.457 312.271 23.457C311.463 23.457 310.668 23.1388 310.445 22.5662C310.223 21.9936 309.497 20.7774 308.831 20.7774C308.174 20.7774 307.005 20.5217 306.42 20.8386C305.835 21.1554 305.472 21.4112 304.441 21.4834C303.425 21.5433 302.255 21.6669 302.394 22.3105C302.547 22.9455 302.547 23.8448 301.892 24.0394C301.224 24.2241 300.053 23.6503 300.277 23.1388C300.499 22.6286 301.306 22.3105 300.499 21.4834C299.692 20.644 299.177 20.1326 298.592 20.644C298.006 21.1554 298.006 21.2888 296.906 21.2888C295.818 21.2888 294.204 21.5433 295.374 20.644C296.545 19.7545 297.491 18.9873 297.421 18.5995C297.352 18.2202 296.625 18.2813 296.039 17.71C295.456 17.1263 294.789 16.7482 294.134 17.1985C293.477 17.6377 292.378 18.3437 291.641 19.3667C291.641 19.3667 290.19 21.2888 290.107 22.1784C290.037 23.0777 290.845 25.061 290.399 25.5015C289.967 25.9517 286.68 25.2458 287.265 26.4632C287.85 27.6794 288.715 28.887 287.85 28.887C286.96 28.887 286.374 28.509 286.095 29.0192C285.789 29.5306 285.649 29.8475 284.841 29.8475C284.035 29.8475 282.069 30.2978 282.209 29.7864C282.362 29.2761 282.501 28.0587 281.554 28.509C280.606 28.958 280.383 29.2761 279.354 29.4694C278.336 29.664 275.995 30.2978 276.581 30.748C277.166 31.1971 277.68 31.2595 276.803 31.771C275.925 32.2824 274.895 32.5381 274.088 32.6605C273.292 32.7938 271.244 33.3041 270.507 33.5598C269.782 33.8155 268.46 34.1324 268.026 34.705C267.582 35.2887 267.29 35.9224 266.564 36.0448C265.826 36.1782 264.809 36.3715 265.031 36.8829C265.241 37.3944 265.534 37.8446 265.171 38.2839C264.809 38.7341 264.727 38.8675 264.727 39.6958C264.727 40.5242 265.686 41.0344 264.446 41.158C263.194 41.2901 262.609 41.6694 263.275 42.1185C263.931 42.5687 265.979 43.9085 264.516 44.2254C263.053 44.5521 261.731 45.2483 260.56 45.2483C259.391 45.2483 256.758 45.3193 256.033 45.1247C255.295 44.9314 254.781 44.869 254.124 44.869C253.469 44.869 252.885 44.7369 251.855 45.1871C250.836 45.6361 250.252 46.2088 250.474 46.8536C250.684 47.4874 251.199 48.9605 250.989 49.6653C250.767 50.3615 250.474 51.1384 250.684 51.8946C250.907 52.6715 251.645 53.6235 252.3 54.0113C252.955 54.3906 253.54 54.5228 253.833 55.3511C254.124 56.1794 254.932 57.08 254.195 57.2745C253.469 57.458 252.077 56.9466 251.352 56.6909C250.614 56.4352 250.474 56.374 250.474 55.4735C250.474 54.5839 249.936 54.1239 249.303 53.6235C248.648 53.112 248.426 52.6006 247.478 52.4782C246.519 52.3449 245.055 52.3449 244.693 52.4782C244.612 52.5088 244.529 52.5186 244.448 52.5296C244.564 52.6617 244.915 53.0606 245.278 53.3677C245.723 53.7556 245.641 54.3906 246.589 54.5228C247.548 54.6463 248.345 54.9008 248.426 55.6068C248.496 56.3128 248.86 56.9466 247.912 57.2745C246.964 57.5902 245.278 58.1015 245.933 58.9302C246.589 59.7584 247.619 60.2086 247.982 60.5257C248.345 60.8523 248.567 61.426 248.567 62.3862C248.567 63.3385 248.86 65.127 248.345 65.1885C247.84 65.2606 246.964 65.1885 246.379 65.8942C245.793 66.6005 244.33 67.5607 244.038 67.9388C243.745 68.328 243.663 68.8397 243.885 69.4123C244.108 69.985 244.4 70.8853 245.348 71.0783C246.308 71.2633 246.519 71.0788 246.894 71.836C247.257 72.6128 247.034 72.8588 247.982 72.6743C248.929 72.4797 250.099 71.4569 250.099 72.0306C250.099 72.6128 249.959 72.7978 250.614 73.2469C251.269 73.6971 251.129 72.9299 251.573 74.2697C252.007 75.6091 252.37 76.3763 251.855 76.827C251.352 77.2756 251.352 77.5938 251.352 78.1653C251.352 78.7491 250.684 80.8557 250.181 80.9771C249.666 81.1118 248.648 81.6829 249.081 82.133C249.515 82.5726 250.099 83.6665 249.819 84.2391C249.515 84.8128 249.515 86.3457 250.029 86.6018C250.544 86.8574 252.743 88.1973 252.37 88.7795C252.007 89.3532 251.352 89.7318 251.422 90.1819C251.492 90.631 252.077 91.4603 251.937 91.9704C251.784 92.4821 251.492 92.9322 251.492 93.4439C251.492 93.955 251.422 93.5759 252.592 94.332C253.762 95.1104 254.347 95.2939 254.499 95.9386C254.64 96.5723 254.932 97.2785 254.709 97.9121C254.499 98.5558 253.984 98.8729 254.195 99.5787C254.417 100.285 254.64 100.151 255.447 100.662C256.255 101.174 256.91 101.174 257.424 101.174C257.928 101.174 258.594 100.98 258.514 101.562C258.442 102.135 258.079 102.646 258.221 103.291C258.372 103.925 258.957 104.314 258.442 105.071C257.928 105.847 255.224 107.442 255.81 108.465C256.395 109.488 257.636 111.084 256.839 111.655C256.033 112.228 255.74 112.228 255.74 113.006C255.74 113.762 255.74 114.407 255.295 114.785C254.862 115.173 253.399 116.319 253.329 116.707C253.248 117.096 252.743 118.119 253.469 118.69C254.195 119.264 256.91 120.286 256.91 120.921C256.91 121.565 256.618 121.944 255.81 122.331C255.002 122.719 254.124 122.649 253.54 123.231C252.955 123.803 251.855 125.145 251.129 124.765C250.404 124.377 249.081 123.231 248.567 123.292C248.063 123.355 246.086 123.416 245.793 123.927C245.501 124.438 245.278 126.3 244.693 126.033C244.108 125.788 242.646 125.521 241.991 125.338C241.323 125.145 239.873 123.672 238.913 124.122C237.966 124.57 236.725 125.011 236.14 124.765C235.554 124.5 234.161 123.292 233.647 123.355C233.132 123.416 231.529 123.803 231.014 123.478C230.511 123.16 229.551 122.649 228.452 122.844C227.364 123.038 227.141 122.208 226.263 123.742C225.385 125.276 225.093 125.91 225.093 126.678C225.093 127.445 225.163 128.855 224.437 129.1C223.701 129.367 220.342 130.196 220.342 130.707C220.342 131.218 220.634 131.985 220.049 132.302C219.464 132.619 218.364 133.129 217.78 133.641C217.195 134.152 215.299 136.137 213.613 136.198C211.929 136.259 210.173 135.431 209.588 135.564C209.002 135.687 208.559 136.137 207.248 135.748C205.938 135.37 203.374 134.48 203.374 133.969C203.374 133.458 203.374 132.557 203.153 132.302C202.93 132.047 202.052 131.658 201.62 132.169C201.174 132.68 199.934 133.324 199.864 133.969C199.781 134.602 200.449 136.33 199.934 136.647C199.419 136.965 198.471 137.926 199.056 138.12C199.641 138.305 200.297 139.328 201.104 139.777C201.911 140.227 203.293 141.25 202.345 141.638C201.397 142.017 200.086 142.078 199.641 142.528C199.197 142.978 198.331 143.551 198.25 144.062C198.178 144.573 198.108 146.24 197.372 146.556C196.647 146.875 195.991 147.774 195.616 148.346C195.253 148.919 194.891 149.492 195.031 150.393V150.433C195.71 150.484 196.446 150.638 196.494 150.964C196.575 151.415 197.079 154.288 196.494 154.993C195.909 155.689 195.253 155.628 195.686 156.395C196.131 157.161 197.009 157.735 197.523 157.488C198.027 157.224 199.197 156.712 199.641 156.905C200.086 157.1 198.986 158.572 199.934 159.022C200.882 159.463 201.104 159.718 201.911 159.401C202.707 159.083 202.567 159.022 203.153 159.083C203.736 159.146 205.785 159.533 205.049 160.229C204.322 160.934 203.878 161.068 203.667 161.702C203.444 162.336 203.223 163.686 204.099 163.43C204.977 163.175 205.785 162.408 206.007 162.786C206.217 163.175 206.885 163.553 207.107 163.43C207.318 163.297 208.488 162.725 209.448 162.53C210.395 162.336 210.688 162.336 211.204 162.02C211.706 161.702 211.929 161.19 212.654 161.129C213.39 161.068 214.338 161.253 215.731 160.679C217.124 160.106 217.487 159.463 217.92 160.106C218.364 160.741 218.435 161.385 217.709 161.508C216.972 161.641 215.731 162.469 216.609 162.98C217.487 163.491 218.224 163.686 218.435 164.319C218.656 164.964 218.656 165.538 219.757 166.498C220.845 167.449 222.098 167.96 222.389 169.055C222.682 170.138 222.238 172.317 222.904 173.073C223.56 173.851 223.922 174.035 223.922 174.801C223.922 175.568 223.701 176.335 224.437 176.846C225.163 177.358 225.245 177.429 225.455 178.513C225.678 179.597 226.696 183.054 227.281 183.237C227.866 183.433 228.967 183.298 229.259 182.922C229.551 182.542 230.651 180.681 231.236 181.448C231.822 182.214 232.114 182.604 232.407 183.298C232.7 184.004 233.284 184.649 234.091 184.71C234.888 184.771 235.472 184.833 236.057 184.966C236.642 185.099 238.257 185.221 238.913 184.771C239.569 184.321 241.182 183.81 241.627 184.199C242.06 184.588 242.646 184.649 243.452 185.221C244.249 185.794 245.055 185.856 245.278 186.632C245.501 187.39 245.57 187.839 245.933 188.35C246.308 188.862 247.326 189.946 247.912 190.213C248.496 190.457 249.303 190.528 249.303 191.164C249.303 191.807 248.86 192.379 249.596 192.83C250.321 193.279 253.177 193.719 253.833 193.596C254.499 193.464 256.758 191.101 256.91 192.256C257.05 193.403 258.372 195.569 258.806 195.641C259.25 195.702 261.519 196.215 261.801 195.897C262.105 195.569 262.831 194.548 263.86 194.426C264.878 194.301 266.272 194.619 266.704 194.301C267.149 193.975 267.652 193.596 268.39 193.403C269.126 193.208 269.629 193.208 269.851 192.891C270.074 192.574 269.712 191.236 270.577 191.236C271.467 191.236 271.83 191.357 272.555 190.784C273.292 190.213 275.41 188.8 276.148 188.8C276.873 188.8 277.68 188.923 278.044 188.545C278.406 188.167 278.488 187.206 279.576 187.01C280.676 186.816 281.414 185.856 282.279 186.184C283.168 186.499 284.117 187.266 284.924 187.266C285.719 187.266 287.85 186.561 288.504 187.206C289.159 187.839 291.429 189.824 292.811 190.334C294.204 190.845 295.96 190.908 297.059 190.908C298.159 190.908 300.499 191.164 301.224 191.164C301.962 191.164 303.718 191.357 304.01 191.04C304.303 190.724 305.987 189.118 306.49 188.994C307.005 188.862 307.228 188.484 307.368 188.034C307.52 187.583 307.743 187.01 307.158 186.367C306.572 185.732 305.987 185.732 306.127 185.027C306.267 184.321 305.765 183.565 305.765 183.565C305.765 183.565 305.25 181.836 305.612 181.387C305.987 180.937 306.197 180.364 306.782 179.475C307.368 178.574 309.124 176.142 310 176.723C310.878 177.297 311.253 177.614 312.12 177.614C313.008 177.614 314.097 177.102 314.833 177.808C315.56 178.513 315.489 179.148 316.799 178.964C318.122 178.769 322.37 178.063 323.456 179.915C324.557 181.765 326.465 183.943 327.413 184.199C328.359 184.455 331.801 184.321 333.111 184.077C334.434 183.81 335.745 182.859 336.552 182.542C337.36 182.214 339.699 182.411 340.507 182.214C341.303 182.031 342.848 181.448 343.642 182.031C344.45 182.604 345.773 182.726 346.638 182.726C347.528 182.726 350.301 182.666 351.249 183.689C352.208 184.71 353.297 185.099 354.83 185.099C356.375 185.099 359.299 185.027 360.541 184.905C361.78 184.771 364.274 185.027 364.86 184.516C365.444 184.004 366.977 182.092 368.51 181.519C370.042 180.937 372.686 179.66 373.341 178.452C373.998 177.234 374.29 176.406 374.876 175.895C375.459 175.383 378.233 172.756 379.334 173.268C380.434 173.779 381.088 174.545 382.259 174.167C383.429 173.779 385.559 172.562 386.284 172.562C387.009 172.562 390.087 173.144 391.772 172.694C393.445 172.245 394.697 171.733 395.352 171.028C396.009 170.332 396.302 169.055 396.816 168.859C397.331 168.665 398.056 169.055 398.349 168.226C398.641 167.388 399.519 167.07 398.571 166.304Z" fill="#DEF4AD"/>
<path d="M187.853 108.257L188 108.295C187.867 108.668 187.705 109.002 187.392 109.273C186.654 109.917 186.091 110.406 185.825 111.371C185.543 112.337 183.87 115.401 183.22 115.876C182.582 116.352 180.999 118.851 179.623 119.262C178.231 119.663 176.012 120.215 176.1 121.502C176.203 122.789 178.04 123.923 177.402 125.134C176.75 126.343 175.922 127.297 176.1 127.862C176.292 128.428 177.579 128.828 176.469 129.87C175.361 130.926 175.272 131.325 173.598 131.325C171.941 131.325 170.55 131.325 170.742 131.968C170.921 132.612 171.763 133.424 170.921 134.377C170.09 135.354 167.871 132.857 166.849 134.222C165.843 135.587 165.368 136.952 164.719 137.197C164.081 137.441 161.951 137.595 161.58 138.405C161.21 139.218 161.299 139.295 160.1 140.414C158.901 141.548 158.531 142.101 159.537 142.988C160.558 143.879 161.669 143.478 162.601 144.522C163.518 145.564 163.341 145.809 164.539 145.654C165.739 145.487 166.672 144.201 166.479 146.054C166.301 147.894 165.368 150.16 164.363 150.881C163.341 151.602 162.142 152.489 160.84 152.489C159.537 152.489 159.923 152.244 159.537 151.448C159.182 150.636 158.058 149.425 157.139 149.272C156.222 149.103 153.809 148.307 153.35 149.425C152.878 150.559 153.616 151.035 153.616 152.092C153.616 153.133 154.638 154.421 154.92 155.386C155.202 156.352 156.03 157.318 157.879 157.073C159.73 156.828 161.757 156.184 162.039 157.639C162.321 159.081 163.431 161.103 162.498 161.013C161.581 160.934 159.078 159.57 158.34 160.369C157.599 161.179 155.941 162.055 155.096 163.587C154.268 165.12 154.461 165.916 153.809 166.483C153.158 167.052 152.787 166.805 152.24 167.771C151.677 168.736 151.588 169.38 150.657 170.192C149.74 170.989 147.342 171.955 149.561 172.122C151.782 172.276 153.809 172.045 155.008 172.199C156.222 172.353 158.161 172.843 156.769 173.564C155.378 174.285 154.357 175.018 154.831 175.662C155.29 176.305 156.399 177.504 156.399 177.504H156.517C156.517 178.429 158.591 180.323 159.271 181.212C160.011 182.178 160.277 183.065 161.017 183.632C161.757 184.186 159.73 185.795 158.619 186.606C157.509 187.402 154.92 186.758 154 186.683C153.069 186.606 152.417 185.795 151.87 184.918C151.307 184.031 149.917 184.829 149.37 185.227C148.82 185.641 146.215 183.786 145.759 183.387C145.298 182.988 144.928 181.7 144.099 181.289C143.256 180.89 143.997 180.568 143.818 179.204C143.64 177.838 139.378 178.314 138.726 178.481C138.075 178.636 136.507 176.783 135.677 175.984C134.848 175.174 134.198 175.739 133.177 175.817C132.155 175.909 130.216 175.984 128.646 175.909C127.077 175.817 126.426 174.053 125.598 173.088C124.754 172.122 124.014 174.053 122.638 173.977C121.247 173.886 122.815 172.276 123.377 171.632C123.925 170.989 123.274 170.667 122.725 169.38C122.178 168.092 121.897 167.204 121.054 164.797C120.225 162.389 118.745 163.51 117.634 163.265C116.524 163.033 116.613 162.145 116.524 161.41C116.436 160.692 114.866 161.179 113.387 161.257C111.906 161.336 111.906 160.613 111.817 158.836C111.715 157.073 110.425 157.395 109.405 157.318C108.384 157.24 107.644 158.193 106.075 158.604C104.506 159.005 103.485 158.193 102.936 158.039C102.375 157.883 101.176 158.527 100.435 158.926C99.6954 159.326 96.9125 159.481 96.1727 159.57C95.4321 159.648 94.8841 160.291 94.1443 160.767C93.4044 161.257 93.5825 161.657 93.0353 162.545C92.472 163.433 89.8818 161.979 89.5118 161.257C89.1419 160.536 89.4228 159.326 89.6155 158.527C89.7927 157.729 89.8818 157.318 89.0529 157.395C88.2547 157.472 87.9731 157.331 87.2033 157.897L87.1434 157.845C87.2325 155.503 86.9355 154.898 86.3445 154.382C85.752 153.867 85.0567 153.173 84.1534 152.993C83.267 152.825 82.97 151.523 82.7628 150.314C82.5701 149.103 81.4742 150.057 79.7873 149.798C78.0858 149.541 80.0843 148.152 80.7796 147.637C81.4742 147.121 80.3798 144.78 79.8763 144.263C79.3874 143.749 77.7888 143.31 76.9016 143.31C75.9983 143.31 76.1019 142.872 75.7028 142.101C75.303 141.328 74.207 141.328 72.9192 141.328C71.6322 141.328 72.3283 140.801 72.1203 139.848C71.9576 139.037 72.0021 137.982 72.0167 137.685C72.1648 137.66 72.3283 137.634 72.4618 137.595C73.6307 137.338 72.5201 136.308 72.3429 135.407C72.1502 134.493 73.8225 134.866 74.3106 134.815C74.8141 134.763 75.613 134.171 76.2209 133.681C76.8417 133.205 79.5501 131.596 79.8617 131.274C80.1726 130.952 80.7351 130.85 81.534 130.785C82.333 130.733 81.8295 129.394 81.8295 128.97C81.8295 128.532 81.4742 127.244 81.1641 126.497C80.8533 125.752 81.0306 123.769 81.0897 123.279C81.1641 122.789 83.0736 121.567 83.9324 121.452C84.7904 121.349 85.8418 120.215 86.4036 119.791C86.9516 119.367 88.3729 118.825 89.5418 118.284C90.7106 117.758 90.7851 117.217 90.7106 116.352C90.6523 115.503 90.2225 114.86 89.6155 114.37C88.9938 113.894 89.3046 113.2 89.4819 112.608C89.6746 112.015 90.9631 111.743 92.0138 111.371C93.0644 110.998 92.6347 110.895 93.3162 110.188C93.9816 109.492 99.0445 109.016 100.465 108.745C101.886 108.474 101.886 106.866 102.064 106.055C102.256 105.256 103.796 105.63 104.165 105.952C104.535 106.274 105.334 106.39 106.075 106.222C106.814 106.055 107.126 105.256 107.495 104.83C107.865 104.393 110.086 104.715 110.885 104.715C111.684 104.715 113.963 104.459 114.645 104.189C115.326 103.917 116.998 103.429 117.605 103.429C118.227 103.429 118.834 104.934 119.647 105.681C120.446 106.44 121.247 105.9 122.356 105.746C123.467 105.578 123.659 105.205 124.695 104.511C125.746 103.802 126.056 104.459 126.915 104.83C127.788 105.205 128.025 104.459 128.587 104.021C129.136 103.595 130.068 103.867 130.675 103.867C131.297 103.867 131.8 100.43 131.918 99.5657C131.977 99.1018 132.376 98.8308 132.792 98.6138C133.132 98.4196 133.472 98.2654 133.634 98.0718C134.02 97.6346 133.695 96.7735 134.02 96.399C134.375 95.9738 134.627 95.8723 134.079 95.2789C133.516 94.6862 132.406 93.4506 133.576 93.4506C134.759 93.4506 135.619 94.1595 136.359 93.2964C137.099 92.4339 140.296 89.7045 140.918 90.0262C141.538 90.3486 142.087 90.7224 142.339 91.5835C142.59 92.434 143.389 92.8071 143.566 93.6188C143.759 94.4165 143.64 94.7382 143.256 95.1761C142.9 95.6007 143.137 97.16 142.397 97.3122C141.657 97.4817 141.035 97.3649 140.918 97.9049C140.799 98.4463 141.48 98.7153 140.548 99.3087C139.629 99.8874 138.756 100.054 139.2 101.02C139.629 101.986 140.369 101.986 140.429 102.836C140.488 103.699 140.977 104.934 140.607 105.256C140.236 105.578 139.067 106.647 140.178 106.918C141.287 107.187 141.48 107.29 141.968 106.325C142.457 105.359 142.886 103.377 144.069 103.867C145.239 104.342 146.779 105.849 147.518 105.308C148.259 104.768 148.82 103.917 149.176 104.511C149.561 105.102 150.538 105.9 151.102 105.746C151.649 105.578 151.707 104.934 152.759 104.83C153.809 104.715 156.089 104.987 155.97 104.123C155.837 103.274 154.859 102.192 155.718 101.768C156.578 101.342 157.628 101.716 158.619 101.447C159.611 101.175 162.261 101.226 162.261 101.935C162.261 102.63 161.951 104.342 163.12 104.29C164.288 104.239 165.71 103.814 166.509 104.561C167.322 105.308 167.501 106.003 168.612 105.796C169.72 105.578 171.452 105.153 172.118 105.411C172.8 105.681 174.162 106.055 174.783 105.746C175.389 105.411 176.322 103.867 177.684 104.83C179.031 105.796 182.864 107.935 187.853 108.257Z" fill="#FF9B04"/>
<path d="M72.4287 137.472C71.2928 137.665 69.7875 137.665 69.2422 136.911C68.6379 136.052 68.3281 134.991 67.3399 135.796C66.3662 136.59 66.3509 136.808 65.5546 136.808C64.7583 136.808 63.416 136.371 63.0325 137.075C62.6781 137.767 62.3685 138.778 61.5564 139.302C60.7607 139.839 60.2146 140.646 59.5947 140.646C58.99 140.646 58.0014 140.211 57.4415 140.849C56.8947 141.49 56.0247 142.244 55.4207 141.924C54.8009 141.604 54.3133 141.068 53.8853 140.965C53.4433 140.849 52.529 140.646 52.529 140.211C52.529 139.789 52.0415 139.046 50.995 139.046C50.8771 138.752 50.5668 138.573 50.0352 138.267C49.2099 137.792 49.2974 136.271 48.5605 135.311C47.8234 134.351 47.8234 134.107 47.4545 133.238C47.0856 132.355 45.5212 131.626 44.8724 130.831C44.238 130.041 45.153 127.954 45.0648 126.674C44.9759 125.394 41.6421 124.039 40.9046 123.642C40.1667 123.232 39.9903 122.439 39.7096 121.313C39.429 120.2 38.3376 120.034 37.8653 119.075C37.4075 118.115 38.7948 117.398 39.7096 116.272C40.6391 115.16 39.9013 113.317 39.3407 112.601C38.7948 111.884 38.3376 111.001 38.3376 110.208C38.3376 109.402 39.5324 108.685 40.3592 108.596C41.1845 108.519 41.5532 107.163 42.0256 106.676C42.4834 106.203 42.291 103.568 42.1145 102.366C41.9221 101.162 39.429 101.406 38.4259 101.329C37.4075 101.252 38.4259 101.329 37.4964 99.8075C36.5821 98.2844 36.3022 99.7299 35.3867 99.8075C34.4579 99.8825 34 98.6021 34 97.8114C34 97.0047 36.5821 94.8553 37.04 94.3683C37.4964 93.8827 37.9543 93.0886 38.3376 92.4504C38.6913 91.8102 39.0745 91.5668 39.9903 91.8103C40.9046 92.0524 41.5532 93.6518 42.0256 94.4466C42.4834 95.2513 44.6952 94.9315 45.2413 94.7664C45.8026 94.6118 46.1713 92.9354 46.4513 91.9635C46.7167 91.0155 46.3478 90.8503 45.7136 90.1338C45.0648 89.4054 45.7136 89.3271 46.0681 88.6876C46.4513 88.0488 46.2591 87.8942 46.2591 86.5395C46.2591 85.1696 48.1923 81.7279 48.5605 81.3299C48.9292 80.9351 49.8586 80.6154 50.6847 80.295C51.4665 79.9878 52.1746 78.5423 52.8683 77.6467L52.898 77.6593C53.0889 77.6593 54.0038 77.1339 54.5643 77.5823C55.1097 78.0175 55.5676 78.939 56.173 78.3771C56.7768 77.8125 56.9092 77.6593 57.6036 77.4543C58.2965 77.2486 58.99 77.0191 59.1665 76.3796C59.3444 75.7407 59.6685 73.783 59.9933 73.2961C60.3174 72.8231 61.6162 70.6219 62.0726 71.0565C62.5305 71.493 62.8105 72.2599 63.8726 72.4649C64.935 72.6566 65.628 73.0526 66.6759 73.1429C67.7384 73.2198 68.0183 73.5011 69.0808 73.6159C70.1424 73.7432 70.8798 73.4633 71.7503 74.051C72.6207 74.6528 73.1814 75.0229 73.7864 74.8962C74.3754 74.7808 75.6298 74.4226 76.1759 74.2176C76.7366 74.0126 77.5627 73.2198 78.6251 73.4633C79.686 73.6928 80.9695 75.421 81.5746 75.7407C82.1643 76.0592 83.5962 77.0191 84.1117 76.8924C84.6135 76.7776 86.1333 76.8141 86.694 77.0974C87.2394 77.3773 89.4079 78.2225 89.9685 78.3771C90.5147 78.5283 91.6215 78.6192 92.0337 78.6192C92.4468 78.6192 94.1586 78.3771 94.011 79.2972C93.8779 80.2187 93.4649 81.8931 94.0699 81.8931C94.6596 81.8931 96.5489 82.0987 97.2847 82.4185C98.0229 82.7383 98.8643 84.491 100.148 84.2097C101.445 83.9297 101.209 83.5317 101.947 83.8899C102.685 84.2495 103.334 84.8114 103.334 85.2983C103.334 85.7713 102.965 87.8557 103.467 88.4959C103.982 89.1361 105.458 90.7355 106.196 90.4921C106.933 90.2486 109.603 89.0452 110.149 89.2907C110.709 89.5321 112.362 89.9673 112.879 89.8141C113.38 89.6469 114.721 88.9702 115.047 89.8141C115.356 90.6453 115.637 91.6557 116.241 91.6955C116.832 91.732 118.957 91.6955 119.605 92.885C120.254 94.0864 120.43 95.1611 121.08 95.4934C121.729 95.8013 124.635 96.5317 124.945 97.2077C125.27 97.8877 125.727 98.8071 126.287 98.6924C126.848 98.5643 127.158 98.4489 127.895 98.4489C128.633 98.4489 129.002 98.6021 129.415 98.2074C129.842 97.8114 130.21 96.4408 131.318 97.3244C132.424 98.2074 132.97 98.6021 132.97 98.6021L133 98.6426C132.586 98.8582 132.188 99.1275 132.13 99.5886C132.012 100.447 131.51 103.863 130.89 103.863C130.285 103.863 129.357 103.593 128.81 104.016C128.249 104.451 128.014 105.193 127.143 104.821C126.287 104.451 125.978 103.799 124.93 104.502C123.898 105.193 123.707 105.563 122.599 105.73C121.494 105.884 120.696 106.42 119.9 105.666C119.089 104.924 118.484 103.428 117.864 103.428C117.259 103.428 115.593 103.913 114.914 104.183C114.235 104.451 111.963 104.706 111.167 104.706C110.371 104.706 108.157 104.386 107.788 104.821C107.42 105.243 107.11 106.038 106.373 106.203C105.634 106.371 104.838 106.256 104.469 105.935C104.101 105.616 102.566 105.243 102.375 106.038C102.198 106.843 102.198 108.442 100.782 108.711C99.3653 108.98 94.32 109.453 93.6568 110.145C92.9776 110.848 93.406 110.95 92.3588 111.321C91.3117 111.691 90.0274 111.961 89.8347 112.55C89.6587 113.139 89.349 113.828 89.9685 114.301C90.5736 114.788 91.0019 115.428 91.06 116.272C91.1342 117.13 91.06 117.668 89.8951 118.191C88.7302 118.729 87.3136 119.268 86.7674 119.688C86.2068 120.111 85.1596 121.238 84.3037 121.339C83.4486 121.454 81.5455 122.669 81.4713 123.156C81.4124 123.642 81.2357 125.613 81.5455 126.353C81.8545 127.096 82.2087 128.376 82.2087 128.811C82.2087 129.233 82.7104 130.563 81.9142 130.616C81.1179 130.68 80.5565 130.781 80.2475 131.101C79.9369 131.421 77.2376 133.021 76.6188 133.494C76.013 133.981 75.2168 134.568 74.715 134.62C74.2285 134.671 72.5618 134.3 72.7538 135.208C72.9305 136.104 74.0373 137.128 72.8723 137.384C72.7393 137.422 72.5763 137.447 72.4287 137.472Z" fill="#E90000"/>
<path d="M295.461 110.233C295.284 109.426 295.739 108.788 295.828 108.071C295.93 107.344 295.095 107.587 294.462 107.587C293.818 107.587 292.996 107.587 291.983 106.948C290.97 106.308 290.69 106.475 290.413 105.593C290.148 104.711 290.795 104.314 291.058 103.51C291.337 102.718 290.97 101.836 290.795 101.043C290.603 100.237 289.868 100.008 288.403 99.0354C286.935 98.0904 287.023 98.5642 287.023 97.9253C287.023 97.2865 287.389 96.7232 287.581 96.0844C287.756 95.4462 287.023 94.4097 286.935 93.8484C286.847 93.2858 287.669 92.8133 288.124 92.0956C288.592 91.3679 285.834 89.6933 285.187 89.3739C284.543 89.0544 284.543 87.1379 284.924 86.4209C285.275 85.7052 284.543 84.338 283.999 83.7893C283.456 83.226 284.733 82.5123 285.379 82.3439C286.009 82.1928 286.847 79.5593 286.847 78.8296C286.847 78.1159 286.847 77.7183 287.478 77.157C288.124 76.5944 287.669 75.6354 287.125 73.9608C286.567 72.2861 286.743 73.2451 285.921 72.6824C285.1 72.1211 285.275 71.8899 285.275 71.1622C285.275 70.4452 283.809 71.7235 282.62 71.9667C281.432 72.1974 281.71 71.8899 281.256 70.919C280.785 69.9727 280.522 70.2033 279.317 69.9727C278.129 69.7308 277.762 68.6055 277.483 67.8898C277.205 67.1741 277.307 66.5346 277.674 66.0482C278.041 65.5757 279.876 64.3755 280.61 63.4934C281.344 62.6107 282.443 62.7009 283.075 62.6107C283.722 62.5345 283.354 60.2986 283.354 59.109C283.354 57.9082 283.075 57.1912 282.62 56.7829C282.165 56.3867 280.873 55.824 280.051 54.7889C279.23 53.7537 281.344 53.1142 282.532 52.7197C283.722 52.3099 283.265 51.5177 283.177 50.6354C283.075 49.753 282.076 49.4349 280.873 49.2805C279.685 49.1153 279.788 48.3216 279.23 47.8368C278.775 47.453 278.334 46.9545 278.188 46.7893C277.791 46.8521 277.394 46.8902 277.394 47.5173C277.394 48.3216 278.216 50.2393 276.852 49.9962C275.474 49.753 275.003 48.4761 274.006 48.5526C272.992 48.6412 271.892 48.8844 272.17 49.6765C272.45 50.4687 272.538 52.2334 273.447 52.7946C274.373 53.3575 275.929 54.1514 276.471 54.9433C277.027 55.7478 277.394 56.8592 276.573 56.5537C275.737 56.2203 274.65 55.7478 273.726 55.7478C272.801 55.7478 270.423 54.2276 269.969 53.7537C269.514 53.2687 268.678 50.1628 269.412 49.4349C270.146 48.7177 271.158 47.5172 271.437 46.4055C271.716 45.28 272.069 43.4404 272.069 42.7246C272.069 42.009 271.614 41.6114 270.982 41.931C270.336 42.2506 270.248 42.405 270.248 43.3639C270.248 44.3211 269.236 47.5172 267.944 47.684C266.667 47.8368 265.742 48.3981 265.008 48.8844C264.276 49.3569 262.353 50.955 263.087 52.0805C263.821 53.1922 263.909 53.2687 263.821 54.3038C263.731 55.3515 264.833 57.0262 264.377 57.665C263.909 58.3045 263.087 59.3396 262.633 60.2204C262.176 61.1031 261.252 63.0972 261.165 63.736C261.06 64.3755 260.885 66.8547 260.518 67.2503C260.151 67.6466 259.784 68.0548 259.872 68.6055C259.975 69.1681 261.619 70.7646 263.365 70.1271C265.112 69.4876 264.553 68.5286 265.567 69.2444C266.58 69.9727 266.109 69.8077 267.21 70.3703C268.311 70.919 269.412 71.0078 270.248 71.7235C271.07 72.4406 271.804 73.2451 271.716 74.2802C271.614 75.3154 271.716 75.3153 271.716 76.5944C271.716 77.8707 272.625 77.9476 271.614 78.5864C270.601 79.2259 270.88 79.2259 270.513 80.108C270.146 80.9907 269.045 82.0245 268.869 81.1438C268.678 80.275 269.045 78.7534 269.412 78.4353C269.779 78.1159 269.969 77.3081 269.867 76.8369C269.779 76.3631 269.514 73.2451 268.048 72.6824C266.58 72.1211 264.098 71.6466 262.998 72.2862C261.898 72.9257 260.797 72.8349 260.797 74.2802C260.797 75.7242 261.532 78.4353 260.606 79.7124C260.606 79.7124 258.773 82.3439 257.495 83.1498C256.204 83.9417 256.762 83.9417 256.571 84.5812C256.395 85.2207 255.925 85.7814 255.294 86.0246C254.648 86.2559 251.068 87.3029 249.791 87.6992C248.499 88.0968 248.969 89.0544 248.499 89.6933C248.044 90.3328 246.209 89.1446 245.754 88.2618C245.3 87.3798 244.653 87.9424 243.554 87.7774C242.453 87.623 241.528 87.1379 240.706 86.3447C239.884 85.5401 239.605 84.338 239.605 83.4692C239.605 82.5872 242.086 84.2618 242.908 84.8244C243.73 85.3871 244.565 84.8244 245.198 84.4281C245.842 84.0325 246.855 84.2618 247.956 84.338C249.057 84.4281 251.068 81.4751 251.714 80.9138C252.358 80.3512 253.635 79.3161 254.56 78.9966C255.47 78.6766 255.749 76.5175 255.837 75.8787C255.925 75.2391 257.582 74.5996 258.039 73.8846C258.508 73.1669 257.217 72.1211 256.571 71.6473C255.925 71.1622 255.662 70.0489 255.662 69.0919C255.662 68.133 256.85 66.3682 257.127 65.5757C257.393 64.7718 257.495 62.3052 257.861 61.3337C258.228 60.3874 258.596 59.901 259.505 59.109C260.43 58.3045 261.165 55.2753 261.252 53.6649C261.282 53.0133 261.192 52.5775 261.003 52.2456C260.739 51.7853 260.299 51.556 259.872 51.2746C259.14 50.802 259.696 49.9962 260.239 49.0373C260.797 48.08 262.441 47.3643 263.175 46.7251C263.909 46.0859 263.644 44.8839 263.731 43.7722C263.821 42.6482 264.098 42.9678 264.643 42.2506C265.199 41.5227 264.643 40.5776 264.377 40.0149C264.098 39.4521 261.707 39.2089 261.06 38.8893C260.43 38.5697 260.239 38.5697 258.861 38.4932C257.495 38.4168 257.217 37.6889 256.762 37.1399C256.305 36.5756 254.927 37.8541 254.457 38.5697C254.457 38.5697 253.18 42.4937 252.534 43.3639C251.903 44.2447 250.788 45.7663 250.158 46.1623C249.512 46.5584 246.576 47.7604 245.565 48.3216C244.565 48.8844 242.716 50.5589 243.098 51.0314C243.451 51.5177 244.653 52.0805 244.184 52.6295C243.73 53.1922 243.73 53.8313 243.554 54.547C243.362 55.2753 243.642 57.1912 242.996 57.4987C242.365 57.8307 239.972 57.9082 240.251 58.9434C240.516 59.9792 242.996 61.6657 242.996 62.6107C242.996 63.5836 242.453 64.4517 243.098 65.5757C243.73 66.6877 245.198 67.4935 244.743 67.8129C244.286 68.133 243.451 68.5286 243.362 68.9249C243.275 69.3332 243.187 71.084 242.541 71.3272C241.894 71.5585 239.972 71.6473 239.884 70.8428C239.782 70.0489 240.427 68.4524 238.96 67.4935C237.492 66.5346 236.391 64.3755 235.378 63.5836C234.381 62.7777 233.647 61.3337 233.09 60.6167C233.074 60.5921 233.046 60.5663 233.016 60.5279L233 60.5405C233 60.5405 230.801 62.5345 230.976 63.1734C231.167 63.8129 232.825 64.1323 232.724 65.4994C232.634 66.8547 232.825 67.0071 232.091 67.5704C231.357 68.133 229.612 70.2802 230.346 70.5227C231.08 70.7646 232.825 72.3624 231.71 72.6824C230.623 73.0019 229.787 73.0801 230.346 73.6414C230.888 74.204 232.267 74.6765 230.521 75.6354C228.776 76.5944 228.687 77.2319 227.689 77.3081C226.675 77.3982 226.032 77.157 225.664 77.8707C225.297 78.5864 224.651 79.1491 223.638 79.3923C222.641 79.6355 215.478 81.0656 215.391 81.6282C215.302 82.1928 215.948 83.061 214.481 83.226C213.013 83.393 210.621 83.7893 209.696 84.5812C208.786 85.3871 206.219 87.1379 205.397 87.228C204.559 87.3029 204.839 86.4209 203.929 86.2559C203.004 86.1015 202.182 86.1015 201.171 86.8185C200.157 87.5342 198.793 88.0968 198.602 89.0544C198.426 90.0134 198.881 91.4567 198.059 92.0956C197.221 92.7351 197.134 92.7351 196.136 93.8484C195.124 94.9724 195.211 95.2918 194.2 96.3269C193.201 97.3627 192.644 96.8902 192.556 98.6391C192.466 100.404 192.819 101.516 192.277 102.232C191.734 102.961 189.885 104.149 189.708 104.711C189.532 105.273 189.151 105.273 188.608 106.475C188.299 107.165 188.197 107.778 188.02 108.291C187.888 108.66 187.727 108.992 187.418 109.261C186.686 109.9 186.128 110.385 185.864 111.344C185.585 112.303 183.925 115.345 183.281 115.818C182.649 116.29 181.079 118.77 179.715 119.179C178.335 119.576 176.134 120.125 176.222 121.402C176.324 122.68 178.145 123.806 177.513 125.008C176.867 126.209 176.045 127.155 176.222 127.716C176.412 128.279 177.689 128.675 176.588 129.71C175.488 130.758 175.4 131.154 173.741 131.154C172.097 131.154 170.719 131.154 170.909 131.793C171.086 132.432 171.922 133.238 171.086 134.185C170.263 135.154 168.062 132.675 167.049 134.03C166.051 135.386 165.581 136.74 164.937 136.984C164.304 137.227 162.192 137.379 161.825 138.184C161.458 138.99 161.546 139.066 160.357 140.178C159.169 141.304 158.801 141.852 159.799 142.733C160.812 143.617 161.913 143.22 162.836 144.256C163.746 145.29 163.571 145.534 164.759 145.381C165.948 145.214 166.873 143.937 166.682 145.777C166.506 147.604 165.581 149.854 164.584 150.569C163.571 151.285 162.382 152.166 161.091 152.166C159.799 152.166 160.181 151.922 159.799 151.132C159.448 150.326 158.331 149.124 157.422 148.972C156.511 148.805 154.12 148.014 153.665 149.124C153.197 150.249 153.929 150.722 153.929 151.771C153.929 152.805 154.942 154.083 155.221 155.042C155.5 156.001 156.322 156.96 158.155 156.717C159.99 156.474 162.001 155.834 162.28 157.278C162.559 158.711 163.66 160.717 162.734 160.629C161.825 160.55 159.344 159.196 158.612 159.989C157.878 160.794 156.234 161.662 155.397 163.183C154.575 164.706 154.767 165.496 154.12 166.059C153.474 166.621 153.107 166.378 152.564 167.337C152.006 168.295 151.918 168.935 150.995 169.741C150.085 170.531 147.707 171.49 149.907 171.657C152.109 171.81 154.12 171.58 155.309 171.734C156.511 171.888 158.434 172.372 157.054 173.088C155.676 173.804 154.662 174.532 155.133 175.171C155.588 175.81 156.687 177 156.687 177H156.805C156.805 176.91 156.819 176.834 156.865 176.769C157.333 175.965 157.246 175.645 158.068 175.722C158.889 175.81 160.533 176.361 161.003 175.007C161.458 173.651 161.458 173.728 161.458 172.935C161.458 172.13 160.533 171.171 161.738 171.02C162.926 170.851 164.937 170.38 165.494 170.775C166.051 171.171 166.962 172.372 167.871 172.22C168.796 172.053 170.175 171.888 169.161 171.094C168.15 170.302 166.227 169.024 166.682 168.462C167.137 167.9 167.695 167.413 167.518 166.698C167.328 165.984 166.962 164.219 167.974 164.142C168.986 164.065 172.656 166.225 173.741 166.135C174.856 166.059 175.488 166.059 176.954 166.059C178.422 166.059 181.813 166.303 183.47 166.621C185.13 166.941 187.785 167.976 188.697 167.58C189.62 167.184 190.442 166.378 191.176 166.621C191.91 166.865 193.554 167.413 194.2 167.413C194.844 167.413 198.602 167.107 199.248 167.337C199.892 167.58 201.171 167.9 202.006 167.9C202.828 167.9 204.384 167.823 205.675 167.107C206.953 166.378 207.143 166.059 207.965 166.303C208.786 166.545 210.167 167.26 211.076 167.26C212.001 167.26 212.823 166.865 213.366 167.657C213.924 168.462 214.379 169.102 215.302 169.102C215.568 169.102 215.875 169.112 216.212 169.152V169.102C216.037 167.976 216.491 167.26 216.946 166.545C217.417 165.83 218.239 164.706 219.148 164.308C220.072 163.912 220.159 161.829 220.249 161.189C220.351 160.55 221.438 159.835 221.994 159.273C222.553 158.711 224.196 158.634 225.385 158.16C226.574 157.675 224.841 156.397 223.83 155.834C222.816 155.273 221.994 153.994 221.261 153.764C220.526 153.521 221.716 152.32 222.362 151.922C223.008 151.526 222.17 149.367 222.273 148.575C222.362 147.77 223.917 146.964 224.476 146.326C225.018 145.686 226.119 146.173 226.398 146.492C226.675 146.81 226.675 147.936 226.675 148.575C226.675 149.214 229.891 150.326 231.534 150.798C233.178 151.285 233.735 150.722 234.468 150.569C235.203 150.403 237.405 151.438 239.517 151.361C241.631 151.285 244.009 148.805 244.743 148.165C245.475 147.526 246.855 146.888 247.589 146.492C248.323 146.096 247.956 145.137 247.956 144.498C247.956 143.859 252.169 142.823 253.093 142.49C254.002 142.184 253.914 140.421 253.914 139.463C253.914 138.503 254.281 137.711 255.382 135.793C256.483 133.876 256.762 134.913 258.126 134.67C259.505 134.427 260.71 135.066 261.34 135.463C261.986 135.87 263.997 135.386 264.643 135.309C265.288 135.231 267.035 136.74 267.768 137.072C268.503 137.379 270.058 136.828 271.247 136.268C272.45 135.705 274.269 137.546 275.107 137.787C275.929 138.017 277.762 138.35 278.495 138.656C279.23 138.99 279.509 136.664 279.876 136.025C280.242 135.386 282.722 135.309 283.354 135.231C283.999 135.154 285.658 136.587 286.568 137.072C287.478 137.546 288.857 135.87 289.592 135.154C290.324 134.427 291.425 134.515 292.437 134.03C293.451 133.545 293.818 133.072 293.818 132.267C293.818 131.473 290.413 130.197 289.502 129.479C288.592 128.765 289.225 127.486 289.326 127.001C289.414 126.516 291.249 125.083 291.791 124.598C292.35 124.125 292.35 123.319 292.35 122.374C292.35 121.402 292.717 121.402 293.729 120.686C294.728 119.972 293.172 117.978 292.437 116.7C291.704 115.421 295.095 113.427 295.739 112.458C296.385 111.511 295.651 111.025 295.461 110.233Z" fill="#FF9B04"/>
<path d="M226.513 53.4927C225.303 53.173 224.212 52.7749 223.562 53.0184C222.912 53.2493 221.435 52.455 221.258 53.9656C221.065 55.4872 221.435 58.3658 220.52 58.6093C219.591 58.8527 218.764 59.0822 218.202 59.5677C217.657 60.0546 216.918 61.8832 215.81 61.6398C214.703 61.4103 213.965 60.0546 214.615 59.4908C215.251 58.9276 216.83 57.6495 215.899 56.8555C214.97 56.0503 214.614 56.2175 213.685 56.447C212.754 56.6904 211.471 56.6904 210.644 57.0101C209.803 57.3298 209.715 58.0461 208.517 56.9331C207.323 55.8069 206.111 54.7708 204.915 54.7708C203.719 54.7708 201.328 55.4872 200.677 55.5774C200.029 55.6537 199.114 55.974 197.991 55.2451C196.899 54.5274 196.618 54.1308 197.075 53.8124C197.533 53.4927 198.464 52.6861 199.114 52.2897C199.748 51.8932 200.206 51.8932 200.206 50.9336C200.206 49.9739 200.308 49.5775 199.379 49.5775C198.464 49.5775 195.422 50.0504 195.142 50.6137C194.862 51.177 193.667 52.455 193.207 51.7402C192.736 51.0102 192.278 50.3703 191.349 50.3703C190.432 50.3703 188.307 49.8974 188.307 49.8974C187.2 49.8974 184.439 49.5775 183.419 49.7305C182.402 49.8974 180.275 49.8974 179.64 50.0504C178.99 50.2173 178.062 50.0504 176.968 50.127C175.847 50.2173 175.949 50.9336 175.301 51.5733C174.651 52.2131 174.016 52.455 173.173 52.6096C172.347 52.7749 169.941 51.9698 169.026 51.7402C168.11 51.4969 168.007 50.4606 167.918 49.4106C167.83 48.3745 167.726 47.0199 167.83 46.2133C167.918 45.4205 169.941 45.1771 170.782 45.1006C171.609 45.0103 173.631 45.5735 174.193 46.2133C174.753 46.8531 176.039 43.2578 175.949 41.4165C175.847 39.5874 172.893 37.1048 171.609 35.8268C170.324 34.5473 170.413 37.8212 170.413 39.4206C170.413 41.02 169.396 40.7001 168.569 40.942C167.726 41.1731 167.83 41.7364 167.638 42.2996C167.461 42.8613 165.985 43.3358 164.596 43.821C163.209 44.2939 164.315 46.0603 164.315 46.8531C164.315 47.6582 163.49 48.2979 162.752 49.4106C162.013 50.5372 161.186 50.2173 160.344 50.4606C159.518 50.6903 158.602 51.7402 157.126 52.455C155.65 53.173 156.935 50.8571 157.673 50.127C158.412 49.4107 156.299 47.4929 155.369 46.7765C154.439 46.0603 152.416 46.9296 151.487 47.0199C150.572 47.0964 150.01 46.7765 149.007 46.3802C148.682 46.2516 148.459 46.2011 148.239 46.2011C147.767 46.2011 147.323 46.4689 146.053 46.8531C144.208 47.4163 144.105 46.9296 142.628 47.0199C141.153 47.0964 142.083 48.5413 142.083 49.4887C142.083 50.4606 141.994 50.8571 141.255 51.2535C140.518 51.6499 140.887 52.533 140.887 53.173C140.887 53.8124 139.217 53.173 138.391 53.0947C137.565 53.0184 137.285 52.2897 137.004 51.33C136.723 50.3703 135.35 49.6541 134.612 48.9377C133.873 48.2092 133.415 44.0644 133.313 42.9379C133.224 41.8129 132.205 42.4527 131.29 42.696C130.36 42.9379 129.814 45.0103 129.814 46.2133C129.814 47.4163 130.552 48.849 130.552 49.4106C130.552 49.9739 129.814 51.7402 128.795 52.2131C127.776 52.6861 125.016 49.9739 124.367 49.2576C123.716 48.5413 124.455 47.4929 125.016 46.8531C125.562 46.2133 124.175 43.7323 124.086 42.8613C123.997 41.9797 124.647 41.5068 125.296 41.0966C125.931 40.7001 125.754 39.3441 126.3 38.1411C126.862 36.9395 128.056 36.6196 128.795 36.1467C129.533 35.66 131.01 34.3804 131.748 33.4207C132.486 32.461 131.94 31.0284 131.748 30.0703C131.556 29.1106 131.748 28.9438 132.029 27.9076C132.295 26.8714 131.94 24.7867 132.029 23.5974C132.117 22.3944 133.505 22.1511 134.154 22.624C134.789 23.1107 134.154 24.147 133.682 25.1066C133.224 26.0663 134.701 27.5877 135.247 28.5474C135.808 29.507 135.808 31.0284 136.827 32.6279C137.845 34.2274 139.041 36.3885 139.868 37.0283C140.694 37.6681 140.325 38.9477 140.414 39.9839C140.518 41.02 147.057 43.3358 148.357 43.6541C148.446 43.6802 148.534 43.6924 148.622 43.7062C150.01 43.847 152.49 42.9134 153.612 42.4527C154.822 41.9797 156.196 40.4568 157.214 39.4206C158.233 38.3844 158.514 34.7003 158.412 33.4988C158.321 32.308 157.673 31.9116 157.037 31.1815C156.389 30.4667 156.758 29.6601 156.758 28.8672C156.758 28.0744 156.566 26.0663 156.758 25.0301C156.935 23.9939 156.389 21.8312 156.02 20.6297C155.65 19.4266 154.632 19.0303 154.351 17.7507C154.086 16.4711 153.347 15.9981 152.785 15.6783C152.226 15.3584 152.328 14.5533 152.226 13.5171C152.135 12.4809 151.311 12.634 150.291 12.3141C149.272 11.9957 149.833 9.67837 149.922 8.96209C150.01 8.24581 151.028 8.55344 152.135 8.96209C153.243 9.36006 152.047 7.51726 151.766 6.63562C151.487 5.76473 149.655 6.48101 148.726 6.48101C147.796 6.48101 147.796 5.91775 147.796 5.27801C147.796 4.63974 146.969 5.20147 146.142 5.35608C145.315 5.52137 145.494 5.20147 144.844 4.56167C144.208 3.92193 143.471 4.31984 142.54 4.31984C141.624 4.31984 141.064 4 139.676 4C138.303 4 134.421 6.40454 133.77 6.63562C133.135 6.87746 132.944 7.24783 132.944 8.08045C132.944 8.96209 133.313 11.1126 132.855 11.9176C132.397 12.7227 132.766 14.0023 131.01 14.0804C129.253 14.1569 127.23 13.4406 126.034 14.3987C124.824 15.3584 123.436 16.4711 122.978 17.5088C122.52 18.5573 121.503 19.9134 121.044 20.8715C120.587 21.8312 119.938 24.147 118.83 24.147C117.723 24.147 117.354 23.9036 116.438 24.7102C115.508 25.5168 114.682 26.4627 113.944 26.5515C113.205 26.628 112.747 26.7949 112.555 27.5877C112.364 28.3805 112.925 29.1107 111.906 29.5836C110.888 30.0703 110.429 30.3902 110.429 31.0284C110.429 31.6682 110.429 32.5514 109.515 33.0243C108.584 33.4988 106.842 33.3442 106 34.137C105.174 34.9436 104.805 35.4166 104.716 36.3885C104.627 37.336 105.542 41.02 103.786 41.8129C102.029 42.6195 101.025 43.2578 99.1795 43.2578C97.3347 43.2578 82.3791 43.1812 81.361 43.2578C80.3567 43.3358 77.212 43.7322 78.1413 44.2174C79.0569 44.7042 80.8137 45.0103 80.0757 45.65C79.3378 46.2898 78.7912 46.8531 78.8808 47.4163C78.9688 47.978 78.9688 49.0143 79.7068 49.4887C80.4447 49.9739 80.6223 50.7668 80.6223 51.5733C80.6223 52.38 79.7068 54.1308 79.3378 53.2493C78.9688 52.38 78.3197 51.4969 77.4922 51.177C76.6662 50.8571 76.0171 50.2173 74.9086 49.4887C73.8017 48.7724 72.5027 48.4525 72.1482 49.2576C71.7639 50.0504 70.9372 50.4606 70.3914 50.3703C69.8303 50.2938 69.3725 50.3703 68.1768 50.4606C66.9811 50.5372 65.0321 50.0504 64.383 50.8571C63.7483 51.6499 64.1158 52.6096 63.0092 52.6096C61.9026 52.6096 60.9724 52.6861 60.6032 53.4927C60.234 54.2979 60.0559 55.7306 59.2157 55.8069C58.3882 55.8832 56.646 55.8838 56.4549 56.7667C56.263 57.6495 57.2814 59.0822 55.9083 59.3256C54.5206 59.5677 52.5713 59.646 52.3056 61.0906C52.0255 62.5233 52.3056 63.4831 51.5675 64.0462C50.8298 64.608 48.3492 66.1952 49.1614 67.3964C49.8113 68.3681 51.7455 69.6483 51.4798 70.4409C51.199 71.2348 50.1805 72.8453 51.0071 72.9999C51.8338 73.1531 53.4132 72.9999 53.5023 74.2031C53.5898 75.4043 54.3282 76.3501 53.5898 77.2336C53.5464 77.2853 53.5167 77.3357 53.4726 77.3881L53.5023 77.4001C53.6933 77.4001 54.609 76.8754 55.1699 77.3238C55.7158 77.7583 56.174 78.6802 56.7799 78.1184C57.3842 77.5533 57.5167 77.4001 58.2116 77.1951C58.9051 76.9902 59.5992 76.7607 59.7758 76.1206C59.9538 75.4825 60.2782 73.5252 60.6032 73.0383C60.9275 72.5654 62.2274 70.364 62.6842 70.7991C63.1424 71.2349 63.4226 72.0023 64.4856 72.2072C65.5489 72.3983 66.2424 72.7949 67.2911 72.8851C68.3544 72.9614 68.6346 73.2433 69.6979 73.358C70.7604 73.4854 71.4983 73.2048 72.3695 73.7925C73.2406 74.3941 73.8017 74.7649 74.4072 74.6375C74.9966 74.5228 76.2521 74.1646 76.7986 73.9596C77.3597 73.7547 78.1865 72.9614 79.2498 73.2048C80.3115 73.4343 81.596 75.1628 82.2015 75.4825C82.7917 75.8009 84.2247 76.7607 84.7407 76.6333C85.2429 76.5186 86.7639 76.5557 87.325 76.8389C87.8708 77.1188 90.041 77.9639 90.6021 78.1184C91.1487 78.2696 92.2564 78.3598 92.669 78.3598C93.0823 78.3598 94.7955 78.1184 94.6478 79.0384C94.5146 79.9597 94.1012 81.6338 94.7067 81.6338C95.2969 81.6338 97.1869 81.8388 97.9241 82.1591C98.6628 82.4788 99.5049 84.2312 100.789 83.95C102.088 83.6694 101.852 83.2715 102.59 83.6296C103.329 83.9898 103.978 84.5509 103.978 85.0365C103.978 85.5107 103.609 87.5954 104.111 88.2355C104.627 88.8749 106.103 90.4747 106.842 90.2313C107.58 89.9879 110.252 88.7847 110.798 89.0294C111.359 89.2715 113.013 89.706 113.53 89.5534C114.032 89.3863 115.374 88.7097 115.701 89.5534C116.01 90.3845 116.291 91.3947 116.895 91.4345C117.487 91.471 119.613 91.4345 120.262 92.6238C120.911 93.825 121.088 94.8995 121.738 95.2318C122.387 95.5389 125.296 96.2692 125.606 96.9457C125.931 97.6256 126.389 98.5449 126.95 98.4301C127.511 98.3015 127.821 98.1867 128.559 98.1867C129.297 98.1867 129.666 98.3399 130.08 97.9453C130.508 97.5486 130.876 96.179 131.984 97.0625C133.091 97.9453 133.638 98.3399 133.638 98.3399L133.667 98.3797C134.007 98.1867 134.347 98.0335 134.508 97.8411C134.892 97.4067 134.569 96.5511 134.893 96.179C135.247 95.7565 135.498 95.6556 134.952 95.066C134.39 94.477 133.283 93.2492 134.45 93.2492C135.63 93.2492 136.488 93.9536 137.226 93.0967C137.964 92.2391 141.153 89.5269 141.773 89.8473C142.392 90.167 142.939 90.5391 143.19 91.3947C143.441 92.2391 144.238 92.6098 144.414 93.4164C144.607 94.209 144.489 94.5294 144.105 94.9638C143.75 95.3863 143.986 96.9351 143.249 97.087C142.51 97.2548 141.89 97.1387 141.773 97.676C141.655 98.2132 142.333 98.4812 141.404 99.0709C140.487 99.646 139.617 99.8111 140.059 100.771C140.487 101.731 141.225 101.731 141.285 102.575C141.344 103.433 141.832 104.66 141.463 104.98C141.093 105.3 139.927 106.362 141.035 106.632C142.141 106.899 142.333 107.001 142.821 106.042C143.308 105.082 143.736 103.112 144.916 103.6C146.083 104.073 147.619 105.569 148.357 105.032C149.095 104.495 149.655 103.65 150.01 104.239C150.394 104.827 151.369 105.619 151.931 105.467C152.477 105.3 152.535 104.66 153.584 104.558C154.632 104.443 156.905 104.712 156.786 103.855C156.654 103.01 155.679 101.936 156.535 101.514C157.393 101.091 158.44 101.463 159.429 101.195C160.418 100.925 163.061 100.976 163.061 101.68C163.061 102.37 162.752 104.073 163.918 104.02C165.084 103.97 166.502 103.547 167.298 104.29C168.11 105.032 168.288 105.722 169.396 105.517C170.501 105.3 172.229 104.877 172.893 105.134C173.573 105.402 174.932 105.773 175.551 105.467C176.156 105.134 177.087 103.6 178.445 104.558C179.789 105.517 183.612 107.642 188.588 107.962L188.734 108C188.913 107.487 189.015 106.873 189.326 106.183C189.872 104.98 190.256 104.98 190.432 104.417C190.611 103.855 192.47 102.666 193.016 101.936C193.562 101.219 193.207 100.107 193.297 98.3399C193.386 96.5895 193.945 97.0625 194.95 96.0257C195.968 94.9897 195.88 94.67 196.899 93.5451C197.902 92.4307 197.991 92.4307 198.833 91.7907C199.66 91.1513 199.203 89.706 199.379 88.7462C199.572 87.7884 200.944 87.2253 201.963 86.5089C202.981 85.7913 203.807 85.7913 204.739 85.9458C205.654 86.111 205.373 86.9938 206.215 86.9189C207.042 86.8287 209.624 85.0763 210.54 84.2697C211.471 83.4764 213.877 83.0804 215.353 82.9133C216.83 82.7481 216.18 81.8786 216.268 81.3141C216.356 80.751 223.562 79.3196 224.565 79.0762C225.584 78.8328 226.234 78.2696 226.604 77.5533C226.973 76.8389 227.621 77.0804 228.64 76.9902C229.644 76.9139 229.734 76.2752 231.489 75.3154C233.245 74.3563 231.859 73.8833 231.313 73.3196C230.751 72.7584 231.592 72.6802 232.686 72.3605C233.807 72.0401 232.051 70.4409 231.313 70.1988C230.574 69.9554 232.33 67.807 233.068 67.2432C233.807 66.6801 233.614 66.5269 233.704 65.1711C233.807 63.8028 232.14 63.4831 231.947 62.843C231.77 62.2029 233.984 60.2071 233.984 60.2071L234 60.1952C233.275 59.3382 230.176 56.4085 229.275 55.4102C228.359 54.3742 227.709 53.8124 226.513 53.4927Z" fill="#FF5F04"/>
</svg>
