<svg width="432" height="200" viewBox="0 0 432 200" fill="none" xmlns="http://www.w3.org/2000/svg">
<g clip-path="url(#clip0_36_114955)">
<path d="M378.746 19H49.2353C46.4569 19 44.2046 21.1332 44.2046 23.7647V176.235C44.2046 178.867 46.4569 181 49.2353 181H378.746C381.524 181 383.777 178.867 383.777 176.235V23.7647C383.777 21.1332 381.524 19 378.746 19Z" fill="#F4F8FF"/>
<g opacity="0.3">
<path opacity="0.3" fill-rule="evenodd" clip-rule="evenodd" d="M66.307 181V-441H68.3163V181H66.307Z" fill="#5067DE" fill-opacity="0.48"/>
<path opacity="0.3" fill-rule="evenodd" clip-rule="evenodd" d="M48.2233 181V-441H50.2326V181H48.2233Z" fill="#5067DE" fill-opacity="0.48"/>
<path opacity="0.3" fill-rule="evenodd" clip-rule="evenodd" d="M157.73 181V-441H159.74V181H157.73Z" fill="#5067DE" fill-opacity="0.48"/>
<path opacity="0.3" fill-rule="evenodd" clip-rule="evenodd" d="M139.646 181V-441H141.656V181H139.646Z" fill="#5067DE" fill-opacity="0.48"/>
<path opacity="0.3" fill-rule="evenodd" clip-rule="evenodd" d="M121.563 181V-441H123.572V181H121.563Z" fill="#5067DE" fill-opacity="0.48"/>
<path opacity="0.3" fill-rule="evenodd" clip-rule="evenodd" d="M103.479 181V-441H105.488V181H103.479Z" fill="#5067DE" fill-opacity="0.48"/>
<path opacity="0.3" fill-rule="evenodd" clip-rule="evenodd" d="M249.153 181V-441H251.163V181H249.153Z" fill="#5067DE" fill-opacity="0.48"/>
<path opacity="0.3" fill-rule="evenodd" clip-rule="evenodd" d="M230.065 181V-441H232.074V181H230.065Z" fill="#5067DE" fill-opacity="0.48"/>
<path opacity="0.3" fill-rule="evenodd" clip-rule="evenodd" d="M212.986 181V-441H214.995V181H212.986Z" fill="#5067DE" fill-opacity="0.48"/>
<path opacity="0.3" fill-rule="evenodd" clip-rule="evenodd" d="M193.898 181V-441H195.907V181H193.898Z" fill="#5067DE" fill-opacity="0.48"/>
<path opacity="0.3" fill-rule="evenodd" clip-rule="evenodd" d="M338.567 181V-441H340.577V181H338.567Z" fill="#5067DE" fill-opacity="0.48"/>
<path opacity="0.3" fill-rule="evenodd" clip-rule="evenodd" d="M320.484 181V-441H322.493V181H320.484Z" fill="#5067DE" fill-opacity="0.48"/>
<path opacity="0.3" fill-rule="evenodd" clip-rule="evenodd" d="M302.4 181V-441H304.409V181H302.4Z" fill="#5067DE" fill-opacity="0.48"/>
<path opacity="0.3" fill-rule="evenodd" clip-rule="evenodd" d="M284.316 181V-441H286.326V181H284.316Z" fill="#5067DE" fill-opacity="0.48"/>
<path opacity="0.3" fill-rule="evenodd" clip-rule="evenodd" d="M374.735 181V-441H376.744V181H374.735Z" fill="#5067DE" fill-opacity="0.48"/>
<path opacity="0.3" fill-rule="evenodd" clip-rule="evenodd" d="M85.3954 181V-441H87.4047V181H85.3954Z" fill="#5067DE" fill-opacity="0.48"/>
<path opacity="0.3" fill-rule="evenodd" clip-rule="evenodd" d="M176.819 181V-441H178.828V181H176.819Z" fill="#5067DE" fill-opacity="0.48"/>
<path opacity="0.3" fill-rule="evenodd" clip-rule="evenodd" d="M266.233 181V-441H268.242V181H266.233Z" fill="#5067DE" fill-opacity="0.48"/>
<path opacity="0.3" fill-rule="evenodd" clip-rule="evenodd" d="M357.656 181V-441H359.665V181H357.656Z" fill="#5067DE" fill-opacity="0.48"/>
<path opacity="0.3" fill-rule="evenodd" clip-rule="evenodd" d="M45 63H383V61H45V63Z" fill="#5067DE" fill-opacity="0.48"/>
<path opacity="0.3" fill-rule="evenodd" clip-rule="evenodd" d="M45 138H383V136H45V138Z" fill="#5067DE" fill-opacity="0.48"/>
</g>
<path d="M303.405 157C306.179 157 308.428 154.761 308.428 152C308.428 149.239 306.179 147 303.405 147C300.63 147 298.381 149.239 298.381 152C298.381 154.761 300.63 157 303.405 157Z" fill="#FF5244"/>
<path d="M303.405 119C306.179 119 308.428 116.761 308.428 114C308.428 111.239 306.179 109 303.405 109C300.63 109 298.381 111.239 298.381 114C298.381 116.761 300.63 119 303.405 119Z" fill="#5067DE"/>
<path d="M303.405 70C306.179 70 308.428 67.7614 308.428 65C308.428 62.2386 306.179 60 303.405 60C300.63 60 298.381 62.2386 298.381 65C298.381 67.7614 300.63 70 303.405 70Z" fill="#FFC148"/>
<path fill-rule="evenodd" clip-rule="evenodd" d="M122.067 31.9672L138.489 66.4794L152.949 75.0285L171.457 94.8293L187.082 126.472L202.497 110.569L219.873 106.766L235.635 113.09L251.822 132.882L268.185 151.384L284.268 140.826L303.041 111.647L317.222 149.509L334.366 124.388L351.041 132.295L367.944 84.8253L384.791 96.412L401.1 99.5277L418.088 138.564L432.598 173.493L450.361 192.497L466.687 178.801L482.62 173.048L499.402 186.514L513.948 178.928L529.269 131.599L546.248 123.548L561.836 106.038L579.472 112.471L596.315 134.798L612.029 92.769L629.595 89.5653L644.422 96.1087L661.444 63.8253L679.075 81.8304L695.97 96.6192L713.565 123.628L727.705 133.78L745.247 130.108L760.363 137.991L776.916 126.521L793.698 123.315L809.292 142.085L809.309 142.104L825.279 159.799L843.115 168.148L859.709 159.673L877.147 157.766L890.439 170.802L907.601 142.064L924.528 130.334L939.87 116.178L957.561 106.302L958.435 107.311L940.901 117.098L925.612 131.207L925.57 131.235L908.844 142.827L890.78 173.076L876.505 159.076L860.249 160.855L843.15 169.586L824.228 160.73L808.043 142.796L793.015 124.709L777.634 127.647L760.494 139.525L744.979 131.434L727.295 135.135L712.336 124.395L694.705 97.3313L677.926 82.6433L677.906 82.6265L661.843 66.2221L645.171 97.8418L629.367 90.8671L613.239 93.8083L596.791 137.803L578.408 113.432L562.35 107.575L547.306 124.474L530.592 132.399L515.281 179.697L499.197 188.087L482.285 174.517L467.587 179.824L450.219 194.393L431.224 174.072L416.638 138.961L416.635 138.952L399.93 100.568L384.076 97.5385L368.761 87.0056L351.969 134.162L334.949 126.093L316.868 152.587L302.76 114.905L285.498 141.606L267.886 153.169L250.556 133.575L234.58 114.041L219.711 108.075L203.393 111.647L186.645 128.924L170.109 95.435L151.859 75.9102L137.219 67.2548L121.479 34.1769L104.613 47.7095L87.9355 54.4008L70.814 94.3668L54.9489 82.9098L38.7104 86.4632L22.9176 99.7389L6.35587 154.16L-11.3338 122.547L-25.9006 112.611L-42.2585 129.913L-43.4786 129.17L-26.1423 110.833L-10.0783 121.79L5.92614 150.393L21.5269 99.1276L37.8966 85.3678L55.3522 81.5472L70.118 92.2105L86.6906 53.5262L103.706 46.6995L122.067 31.9672Z" fill="#5067DE" stroke="#5067DE" stroke-width="0.00218818"/>
</g>
<defs>
<clipPath id="clip0_36_114955">
<rect width="432" height="200" fill="white"/>
</clipPath>
</defs>
</svg>
