<svg width="432" height="209" viewBox="0 0 432 209" fill="none" xmlns="http://www.w3.org/2000/svg">
<g clip-path="url(#clip0_40_115261)">
<path d="M432 0H0V42.2281H432V0Z" fill="#F2F2F2"/>
<path d="M434 43H-1V84H434V43Z" stroke="#D1CFD7" stroke-width="1.02613"/>
<path d="M35.4539 63.9451H87.9766" stroke="#B8B8B8" stroke-width="6.15677" stroke-linecap="round" stroke-linejoin="round"/>
<path d="M144.438 63.9448H171.355" stroke="#B8B8B8" stroke-width="6.15677" stroke-linecap="round" stroke-linejoin="round"/>
<path d="M227.817 63.9448H292.157" stroke="#B8B8B8" stroke-width="6.15677" stroke-linecap="round" stroke-linejoin="round"/>
<path d="M348.621 63.9448H395.892" stroke="#B8B8B8" stroke-width="6.15677" stroke-linecap="round" stroke-linejoin="round"/>
<path d="M433 84H-1V126H433V84Z" stroke="#D1CFD7" stroke-width="1.02613"/>
<path d="M35.4514 105.569H87.9742" stroke="#B8B8B8" stroke-width="6.15677" stroke-linecap="round" stroke-linejoin="round"/>
<path d="M144.436 105.57H171.354" stroke="#B8B8B8" stroke-width="6.15677" stroke-linecap="round" stroke-linejoin="round"/>
<path d="M227.816 105.57H292.156" stroke="#B8B8B8" stroke-width="6.15677" stroke-linecap="round" stroke-linejoin="round"/>
<path d="M348.619 105.57H395.89" stroke="#B8B8B8" stroke-width="6.15677" stroke-linecap="round" stroke-linejoin="round"/>
<path d="M433 126H-1V167H433V126Z" stroke="#D1CFD7" stroke-width="1.02613"/>
<path d="M35.4539 147.195H87.9766" stroke="#B8B8B8" stroke-width="6.15677" stroke-linecap="round" stroke-linejoin="round"/>
<path d="M144.438 147.195H171.355" stroke="#B8B8B8" stroke-width="6.15677" stroke-linecap="round" stroke-linejoin="round"/>
<path d="M227.817 147.195H292.157" stroke="#B8B8B8" stroke-width="6.15677" stroke-linecap="round" stroke-linejoin="round"/>
<path d="M348.621 147.195H395.892" stroke="#B8B8B8" stroke-width="6.15677" stroke-linecap="round" stroke-linejoin="round"/>
<path d="M433 167H-1V208H433V167Z" stroke="#D1CFD7" stroke-width="1.02613"/>
<path d="M35.4539 188.821H87.9766" stroke="#B8B8B8" stroke-width="6.15677" stroke-linecap="round" stroke-linejoin="round"/>
<path d="M144.438 188.819H171.355" stroke="#B8B8B8" stroke-width="6.15677" stroke-linecap="round" stroke-linejoin="round"/>
<path d="M227.817 188.819H292.157" stroke="#B8B8B8" stroke-width="6.15677" stroke-linecap="round" stroke-linejoin="round"/>
<path d="M348.621 188.819H395.892" stroke="#B8B8B8" stroke-width="6.15677" stroke-linecap="round" stroke-linejoin="round"/>
</g>
<defs>
<clipPath id="clip0_40_115261">
<rect width="432" height="208.286" fill="white"/>
</clipPath>
</defs>
</svg>
