<svg width="316" height="146" viewBox="0 0 316 146" fill="none" xmlns="http://www.w3.org/2000/svg">
<path fill-rule="evenodd" clip-rule="evenodd" d="M130.752 1.70409C131.199 1.94781 131.601 2.18453 131.645 2.23022C131.69 2.27574 132.019 2.45865 132.376 2.63669C132.733 2.81456 133.049 3.01502 133.079 3.08217C133.109 3.14932 133.237 3.20411 133.363 3.20411C133.49 3.20411 133.594 3.2589 133.595 3.32605C133.596 3.3932 133.906 3.59318 134.285 3.77073C134.663 3.94827 135.009 4.13118 135.054 4.17719C135.146 4.27198 135.714 4.60268 136.434 4.98086C136.702 5.12133 136.957 5.27303 137.002 5.31774C137.145 5.46065 138.034 5.97003 138.788 6.34057C139.189 6.53811 139.555 6.74736 139.599 6.80573C139.671 6.89987 141.971 8.23438 143.982 9.34907C144.384 9.57181 144.906 9.88999 145.143 10.056C145.38 10.222 145.654 10.3579 145.752 10.3579C145.85 10.3579 145.93 10.4311 145.93 10.5205C145.93 10.6099 146.022 10.6831 146.133 10.6831C146.315 10.6831 148.85 12.0942 149.258 12.4223C149.347 12.4941 149.84 12.7696 150.354 13.0343C150.867 13.2991 151.287 13.5734 151.287 13.644C151.287 13.7145 151.433 13.7722 151.612 13.7722C151.79 13.7722 151.936 13.8369 151.936 13.9158C151.936 13.9948 152.064 14.0998 152.22 14.1493C152.505 14.2393 153.732 14.9203 153.884 15.0729C153.957 15.1459 154.516 15.4659 155.426 15.9551C155.605 16.0512 155.787 16.1663 155.832 16.211C155.925 16.3044 156.506 16.6416 157.212 17.0123C157.48 17.1527 157.735 17.3044 157.78 17.3491C157.825 17.3938 158.007 17.5101 158.186 17.6076C158.762 17.9221 159.946 18.5949 160.986 19.1989C161.544 19.5229 162.457 20.0529 163.015 20.377C164.055 20.981 165.239 21.6538 165.815 21.9682C165.994 22.0658 166.176 22.182 166.221 22.2267C166.294 22.2997 166.853 22.6197 167.763 23.1089C167.942 23.205 168.124 23.3239 168.169 23.3733C168.214 23.4227 168.506 23.5894 168.818 23.7437C169.426 24.0435 169.985 24.3703 170.117 24.5029C170.212 24.5985 170.935 25.004 171.926 25.518C172.315 25.7197 172.67 25.9305 172.714 25.9861C172.759 26.0418 173.197 26.2979 173.688 26.5551C174.179 26.8125 174.618 27.0655 174.662 27.1175C174.734 27.2009 175.268 27.501 177.422 28.6666C177.734 28.8357 178.014 29.029 178.044 29.096C178.074 29.163 178.172 29.218 178.262 29.218C178.353 29.218 178.621 29.3539 178.858 29.5199C179.095 29.6859 179.617 30.0041 180.019 30.2268C180.629 30.5647 181.937 31.3077 184.564 32.807C184.787 32.9345 185.007 33.0753 185.051 33.12C185.096 33.1647 185.352 33.3164 185.62 33.4569C186.339 33.8351 186.907 34.1658 186.999 34.2606C187.044 34.3066 187.39 34.4895 187.768 34.667C188.147 34.8446 188.457 35.0447 188.458 35.1117C188.459 35.1787 188.564 35.2337 188.69 35.2337C188.817 35.2337 188.944 35.2886 188.974 35.3556C189.004 35.4226 189.32 35.6232 189.678 35.8011C190.035 35.9791 190.363 36.162 190.408 36.2075C190.5 36.3018 191.073 36.635 191.788 37.0104C192.056 37.1509 192.311 37.3026 192.356 37.3473C192.451 37.4429 193.174 37.8485 194.165 38.3623C194.554 38.5641 194.909 38.7715 194.953 38.8234C194.998 38.8751 195.436 39.1307 195.927 39.3912C196.418 39.6518 196.857 39.9064 196.901 39.9571C196.946 40.0077 197.348 40.2545 197.794 40.5054C198.24 40.7561 198.934 41.1479 199.336 41.376C199.738 41.6041 200.313 41.9288 200.614 42.0976C201.311 42.4883 201.484 42.6669 201.821 43.3474C202.076 43.8608 202.096 46.0117 202.096 73.1413C202.096 92.5267 202.041 102.382 201.933 102.382C201.844 102.382 201.769 102.473 201.766 102.585C201.76 102.814 201.211 103.52 201.04 103.52C200.978 103.52 200.734 103.656 200.497 103.822C200.26 103.988 199.738 104.308 199.336 104.534C198.934 104.759 198.131 105.217 197.551 105.552C196.97 105.887 196.167 106.345 195.765 106.57C195.363 106.794 194.961 107.033 194.872 107.102C194.732 107.208 193.953 107.651 192.762 108.302C192.583 108.399 192.401 108.515 192.356 108.56C192.311 108.605 192.056 108.757 191.788 108.897C191.082 109.268 190.501 109.605 190.408 109.698C190.363 109.743 190.035 109.925 189.678 110.103C189.32 110.281 188.992 110.464 188.947 110.51C188.855 110.604 188.282 110.937 187.567 111.312C187.3 111.453 187.044 111.605 186.999 111.65C186.955 111.694 186.699 111.841 186.431 111.975C186.163 112.109 185.847 112.31 185.73 112.422C185.612 112.533 185.411 112.625 185.283 112.625C185.156 112.625 185.051 112.68 185.05 112.747C185.049 112.814 184.885 112.949 184.685 113.046C184.485 113.144 183.517 113.686 182.535 114.25C181.553 114.814 180.421 115.458 180.019 115.681C179.617 115.903 179.095 116.222 178.858 116.388C178.621 116.554 178.38 116.689 178.322 116.689C178.265 116.689 177.838 116.928 177.373 117.22C176.909 117.512 176.127 117.964 175.636 118.223C175.145 118.483 174.707 118.739 174.662 118.79C174.618 118.842 174.179 119.095 173.688 119.352C173.197 119.61 172.759 119.866 172.714 119.921C172.67 119.977 172.315 120.188 171.926 120.389C170.935 120.903 170.212 121.309 170.117 121.404C170.044 121.477 169.485 121.797 168.575 122.287C168.396 122.383 168.214 122.498 168.169 122.543C168.096 122.616 167.537 122.936 166.627 123.425C166.448 123.521 166.266 123.636 166.221 123.681C166.176 123.725 165.994 123.842 165.815 123.939C165.278 124.232 164.089 124.907 163.056 125.505C159.002 127.849 158.03 128.396 157.913 128.396C157.84 128.396 157.78 128.453 157.78 128.523C157.78 128.592 157.579 128.734 157.334 128.836C156.894 129.021 155.991 129.538 155.832 129.696C155.787 129.741 155.532 129.893 155.264 130.033C154.549 130.409 153.977 130.742 153.884 130.836C153.84 130.882 153.511 131.065 153.154 131.243C152.797 131.42 152.48 131.621 152.45 131.688C152.42 131.755 152.293 131.81 152.166 131.81C152.04 131.81 151.935 131.865 151.934 131.932C151.933 131.999 151.623 132.199 151.245 132.377C150.866 132.554 150.52 132.737 150.475 132.783C150.431 132.829 150.211 132.972 149.988 133.1C149.765 133.227 149.144 133.585 148.608 133.894C148.073 134.203 147.269 134.647 146.823 134.881C146.376 135.114 145.987 135.36 145.957 135.428C145.927 135.495 145.829 135.55 145.739 135.55C145.648 135.55 145.38 135.685 145.143 135.851C144.906 136.017 144.347 136.355 143.901 136.601C142.561 137.34 139.686 139.022 139.599 139.118C139.555 139.167 139.189 139.369 138.788 139.567C137.817 140.044 137.096 140.48 137.029 140.63C136.999 140.697 136.877 140.752 136.757 140.752C136.636 140.752 136.442 140.844 136.324 140.956C136.206 141.067 135.89 141.268 135.622 141.402C135.354 141.536 135.099 141.683 135.054 141.727C135.009 141.772 134.681 141.955 134.324 142.133C133.966 142.311 133.638 142.494 133.593 142.539C133.444 142.691 132.217 143.373 131.929 143.464C131.773 143.514 131.645 143.619 131.645 143.698C131.645 143.777 131.571 143.841 131.48 143.841C131.389 143.841 131.015 144.03 130.651 144.261C129.725 144.846 128.368 144.844 127.438 144.256C127.077 144.028 126.707 143.841 126.616 143.841C126.525 143.841 126.451 143.777 126.451 143.698C126.451 143.619 126.323 143.514 126.167 143.464C125.878 143.373 124.651 142.691 124.503 142.539C124.458 142.494 124.129 142.311 123.772 142.133C123.415 141.955 123.086 141.772 123.042 141.727C122.997 141.683 122.741 141.536 122.474 141.402C122.206 141.268 121.89 141.067 121.772 140.956C121.654 140.844 121.459 140.752 121.339 140.752C121.219 140.752 121.097 140.697 121.067 140.63C121 140.48 120.279 140.044 119.308 139.567C118.906 139.369 118.541 139.164 118.497 139.111C118.417 139.016 115.799 137.489 114.195 136.602C113.748 136.355 113.189 136.017 112.952 135.851C112.715 135.685 112.485 135.55 112.44 135.55C112.363 135.55 111.654 135.151 109.366 133.822C108.325 133.218 107.142 132.546 106.565 132.231C106.387 132.134 106.204 132.017 106.16 131.973C106.087 131.9 105.528 131.58 104.617 131.09C104.439 130.994 104.256 130.879 104.212 130.835C104.167 130.79 103.984 130.675 103.806 130.579C102.896 130.089 102.337 129.769 102.264 129.696C102.191 129.623 101.632 129.303 100.722 128.814C100.543 128.718 100.36 128.603 100.316 128.558C100.271 128.514 100.089 128.397 99.9099 128.3C99.3767 128.009 98.1922 127.337 97.0692 126.689C96.0374 126.093 95.0745 125.545 94.0361 124.963C93.7519 124.804 93.2236 124.487 92.8625 124.259C92.5013 124.03 92.1643 123.843 92.1136 123.843C92.0628 123.843 91.6218 123.587 91.1333 123.274C90.6447 122.961 90.1735 122.705 90.086 122.705C89.9983 122.705 89.9267 122.649 89.9267 122.581C89.9267 122.513 89.6529 122.329 89.318 122.174C88.7129 121.892 88.134 121.56 87.9788 121.404C87.8855 121.311 86.8625 120.744 86.0309 120.326C85.7184 120.168 85.4262 119.999 85.3815 119.95C85.309 119.87 84.7993 119.575 83.8394 119.059C83.6609 118.963 83.4782 118.847 83.4336 118.801C83.389 118.756 83.0602 118.573 82.7031 118.395C82.346 118.217 82.0173 118.035 81.9726 117.99C81.8795 117.897 81.299 117.56 80.593 117.189C80.3252 117.048 80.0695 116.897 80.0249 116.852C79.9336 116.761 79.4437 116.473 78.4826 115.947C78.1255 115.752 77.3766 115.327 76.8187 115.003C76.2606 114.678 75.3475 114.148 74.7896 113.824C74.2315 113.5 73.4464 113.051 73.0446 112.825C72.6428 112.6 72.1203 112.28 71.8833 112.114C71.6463 111.948 71.3723 111.812 71.2746 111.812C71.1767 111.812 71.096 111.757 71.0952 111.69C71.0942 111.623 70.7655 111.424 70.3647 111.247C69.9638 111.07 69.6357 110.869 69.6357 110.8C69.6357 110.731 69.5321 110.674 69.4057 110.674C69.2792 110.674 69.1515 110.619 69.1216 110.552C69.0919 110.485 68.7753 110.284 68.4182 110.106C68.0611 109.928 67.7324 109.742 67.6877 109.691C67.6431 109.641 67.3256 109.457 66.9821 109.283C65.812 108.69 65.7398 108.646 65.7398 108.522C65.7398 108.453 65.5937 108.398 65.4151 108.398C65.2366 108.398 65.0905 108.342 65.0905 108.274C65.0905 108.15 65.0182 108.105 63.8482 107.512C63.5047 107.338 63.1872 107.149 63.1425 107.092C63.0979 107.036 62.6596 106.777 62.1686 106.516C61.6775 106.256 61.2392 106.005 61.1946 105.96C61.1217 105.886 60.5708 105.57 59.6525 105.077C59.4739 104.98 59.2913 104.865 59.2467 104.821C59.202 104.776 59.0194 104.66 58.8409 104.562C56.8812 103.493 56.3429 103.069 56.3301 102.585C56.3272 102.473 56.2517 102.382 56.1624 102.382C56.0548 102.382 56.0001 92.5267 56.0001 73.1413C56.0001 47.7242 56.0313 43.839 56.2389 43.4287C56.5509 42.8121 57.0335 42.2899 58.0282 41.4926C58.4742 41.1352 59.0707 40.605 59.354 40.3145C59.6372 40.0239 59.9148 39.7861 59.971 39.7861C60.0271 39.7861 60.2404 39.6215 60.4451 39.4203C60.6498 39.219 61.2058 38.7252 61.6806 38.3228C62.1554 37.9204 62.8892 37.2792 63.3112 36.8981C63.7331 36.5168 64.2878 36.0438 64.5438 35.8469C64.7998 35.6502 65.1189 35.3759 65.2528 35.2376C65.3867 35.0992 65.9703 34.5844 66.5498 34.0936C67.1292 33.6029 67.7616 33.055 67.9551 32.8761C68.3958 32.469 69.8745 31.195 70.4082 30.7625C70.629 30.5837 71.1116 30.1575 71.4807 29.8155C71.8499 29.4734 72.4074 28.9986 72.7199 28.7604C73.0324 28.5222 73.3976 28.2167 73.5316 28.0816C73.6655 27.9465 74.1096 27.5433 74.5185 27.1856C77.5585 24.5265 77.6789 24.4225 78.7133 23.5582C79.108 23.2283 79.6903 22.7158 80.0072 22.4194C80.3239 22.123 80.8334 21.684 81.1394 21.4439C81.4454 21.2037 82.0416 20.6953 82.4643 20.3142C82.887 19.933 83.4422 19.4574 83.6979 19.2574C83.9535 19.0573 84.4157 18.656 84.7248 18.3653C85.034 18.0748 85.3812 17.8369 85.4965 17.8369C85.6119 17.8369 85.7062 17.7637 85.7062 17.6743C85.7062 17.3254 87.2878 17.5057 88.1668 17.9549C88.6437 18.1987 89.0705 18.4403 89.1151 18.4918C89.1597 18.5433 89.4519 18.7118 89.7644 18.8661C90.3717 19.1659 90.9306 19.4927 91.063 19.6253C91.1729 19.7354 92.2857 20.3445 93.142 20.7633L93.8411 21.1052L94.646 20.6092C95.0886 20.3363 95.5227 20.1131 95.6107 20.1131C96.0253 20.1131 95.6912 19.6304 95.0399 19.2885C94.334 18.9178 93.7535 18.5806 93.6603 18.4872C93.6157 18.4425 93.2977 18.2624 92.9538 18.0868C91.9484 17.5738 91.3877 16.7705 91.3877 15.8431C91.3877 14.5463 91.9834 13.8417 93.5381 13.2996C94.0963 13.105 94.6799 12.8756 94.8349 12.7899C94.9899 12.7042 95.2518 12.6341 95.4167 12.6341C95.5816 12.6341 95.7638 12.5868 95.8215 12.5289C95.9772 12.373 97.5927 11.8326 97.9214 11.8266C98.0776 11.8236 98.2055 11.748 98.2055 11.6586C98.2055 11.5692 98.3211 11.496 98.4623 11.496C98.6035 11.496 99.2793 11.3086 99.9638 11.0795C101.199 10.6662 101.482 10.5615 102.264 10.2287C102.487 10.1337 103.071 9.93714 103.562 9.79179C104.053 9.64644 104.582 9.45833 104.737 9.37378C104.892 9.28907 105.166 9.21981 105.346 9.21981C105.526 9.21981 105.673 9.14665 105.673 9.05723C105.673 8.9678 105.801 8.8922 105.957 8.88927C106.285 8.88326 107.901 8.34282 108.057 8.1869C108.114 8.12902 108.317 8.08171 108.508 8.08171C108.698 8.08171 108.924 8.0235 109.008 7.95245C109.093 7.8814 109.601 7.68565 110.137 7.51737C110.672 7.34909 111.18 7.15106 111.265 7.07741C111.35 7.00376 111.572 6.9436 111.76 6.9436C111.947 6.9436 112.17 6.88393 112.255 6.81109C112.34 6.73826 113.067 6.4695 113.87 6.21391C114.674 5.95833 115.404 5.70209 115.493 5.64454C115.583 5.58698 116.094 5.40748 116.63 5.24587C117.165 5.08426 117.731 4.88802 117.886 4.80982C118.041 4.73145 118.3 4.66739 118.462 4.66739C118.624 4.66739 118.826 4.60902 118.91 4.53765C118.995 4.46627 119.466 4.27718 119.958 4.11736C120.449 3.95754 120.996 3.76292 121.175 3.68488C121.354 3.60684 122.047 3.36052 122.717 3.13778C124.348 2.59506 125.007 2.36777 125.396 2.21429C128.111 1.14203 129.483 1.01131 130.752 1.70409ZM127.83 6.44527C127.741 6.50836 127.339 6.6594 126.938 6.78102C126.536 6.90263 126.134 7.04684 126.045 7.10131C125.956 7.15594 125.444 7.333 124.909 7.49477C124.373 7.65654 123.808 7.85474 123.653 7.93538C123.498 8.01586 123.224 8.08171 123.044 8.08171C122.864 8.08171 122.717 8.15487 122.717 8.24429C122.717 8.33372 122.592 8.40688 122.438 8.40688C122.184 8.40688 121.17 8.72799 120.363 9.06438C120.185 9.13868 119.454 9.3889 118.74 9.62043C118.026 9.85179 117.315 10.1124 117.16 10.1996C117.005 10.2867 116.731 10.3579 116.551 10.3579C116.371 10.3579 116.224 10.4311 116.224 10.5205C116.224 10.6099 116.108 10.6831 115.967 10.6831C115.712 10.6831 113.516 11.3834 112.896 11.6623C112.718 11.7428 112.17 11.9318 111.679 12.0823C111.188 12.2329 110.716 12.4185 110.632 12.4951C110.547 12.5715 110.314 12.6341 110.114 12.6341C109.914 12.6341 109.705 12.7073 109.65 12.7967C109.594 12.8861 109.386 12.9593 109.186 12.9593C108.985 12.9593 108.752 13.0175 108.668 13.0886C108.583 13.1596 108.075 13.3554 107.539 13.5236C107.004 13.6919 106.496 13.8899 106.411 13.9636C106.326 14.0373 106.101 14.0974 105.911 14.0974C105.72 14.0974 105.517 14.1447 105.459 14.2026C105.304 14.3585 103.688 14.899 103.359 14.905C103.203 14.9079 103.075 14.9835 103.075 15.0729C103.075 15.1623 102.947 15.2386 102.791 15.2423C102.474 15.2501 99.8833 16.1021 99.7397 16.2462C99.6327 16.3531 100.252 16.8072 101.29 17.3825C102.049 17.8034 104.877 19.4215 106.565 20.401C107.101 20.7119 107.868 21.1498 108.27 21.3743C108.672 21.5988 109.073 21.8382 109.163 21.9063C109.303 22.0131 110.082 22.4561 111.273 23.1063C111.451 23.2039 111.634 23.3201 111.679 23.3648C111.723 23.4095 111.906 23.5247 112.085 23.6208C112.995 24.11 113.554 24.4299 113.627 24.5029C113.7 24.5759 114.259 24.8959 115.169 25.3851C115.347 25.4812 115.53 25.5963 115.575 25.6411C115.67 25.7367 116.393 26.1421 117.383 26.6561C117.772 26.8578 118.183 27.11 118.295 27.2163C118.408 27.3227 118.755 27.502 119.066 27.6148C119.378 27.7277 119.633 27.8784 119.633 27.9499C119.633 28.0213 119.742 28.0798 119.876 28.0798C120.01 28.0798 120.12 28.153 120.12 28.2424C120.12 28.3319 120.187 28.405 120.269 28.405C120.351 28.405 120.953 28.7219 121.608 29.1093C122.796 29.812 123.537 30.2382 125.071 31.1001C125.517 31.3509 125.919 31.5977 125.964 31.6483C126.008 31.699 126.447 31.9536 126.938 32.2143C127.429 32.4747 127.867 32.734 127.912 32.7905C127.956 32.8469 128.285 33.0282 128.642 33.1932C128.999 33.3582 129.328 33.5374 129.373 33.5914C129.417 33.6453 129.673 33.7992 129.941 33.933C130.209 34.0668 130.464 34.2131 130.509 34.2578C130.554 34.3027 130.809 34.4545 131.077 34.595C131.792 34.9704 132.364 35.3036 132.457 35.3979C132.501 35.4434 132.83 35.6263 133.187 35.8043C133.544 35.9822 133.873 36.1645 133.918 36.2092C133.962 36.2539 134.145 36.369 134.324 36.4651C135.234 36.9543 135.793 37.2743 135.866 37.3473C135.959 37.4406 136.539 37.7778 137.245 38.1485C137.513 38.289 137.769 38.4407 137.813 38.4854C137.858 38.5301 138.041 38.6463 138.219 38.7439C138.753 39.0349 139.937 39.7067 141.06 40.3551C141.641 40.6902 142.444 41.1479 142.846 41.3724C143.248 41.597 143.649 41.8363 143.739 41.9044C143.879 42.0112 144.658 42.4543 145.849 43.1045C146.027 43.202 146.21 43.3188 146.255 43.3643C146.299 43.4096 146.738 43.6599 147.229 43.9205C147.72 44.1809 148.158 44.4403 148.203 44.4967C148.247 44.5531 148.565 44.7419 148.908 44.916C150.078 45.5094 150.151 45.5538 150.151 45.6777C150.151 45.746 150.297 45.8018 150.475 45.8018C150.654 45.8018 150.8 45.8665 150.8 45.9453C150.8 46.0244 150.928 46.1294 151.084 46.1788C151.369 46.2689 152.595 46.9498 152.748 47.1025C152.88 47.2351 153.439 47.5619 154.046 47.8617C154.359 48.016 154.651 48.1835 154.696 48.2336C154.74 48.2838 155.069 48.4706 155.426 48.6487C155.783 48.8265 156.1 49.027 156.13 49.0942C156.16 49.1611 156.287 49.2161 156.414 49.2161C156.54 49.2161 156.644 49.2808 156.644 49.3597C156.644 49.4387 156.772 49.5443 156.928 49.5946C157.084 49.6448 157.577 49.9003 158.024 50.162C163.975 53.6534 164.5 53.9205 165.104 53.767C166.041 53.529 167.006 53.1995 167.13 53.0748C167.196 53.0092 167.405 52.9556 167.596 52.9556C167.786 52.9556 168.011 52.8954 168.096 52.8218C168.181 52.7481 168.689 52.5501 169.224 52.3818C169.76 52.2135 170.267 52.0178 170.352 51.9467C170.437 51.8757 170.639 51.8175 170.801 51.8175C170.963 51.8175 171.222 51.7463 171.377 51.6591C171.532 51.572 172.244 51.3113 172.958 51.08C173.672 50.8485 174.402 50.5951 174.581 50.5168C175.236 50.2297 177.403 49.5413 177.652 49.5413C177.793 49.5413 177.909 49.4681 177.909 49.3787C177.909 49.2893 178.077 49.2161 178.282 49.2161C178.487 49.2161 178.725 49.1579 178.81 49.0868C178.894 49.0158 179.402 48.8244 179.938 48.6615C180.474 48.4986 181.076 48.3007 181.277 48.2217C181.478 48.1427 181.807 48.0126 182.008 47.9326C182.971 47.5491 183.871 47.265 184.123 47.265C184.277 47.265 184.402 47.1919 184.402 47.1025C184.402 47.013 184.524 46.9399 184.674 46.9399C184.984 46.9399 187.261 46.1995 187.687 45.9601C187.842 45.873 188.101 45.8018 188.263 45.8018C188.425 45.8018 188.627 45.7416 188.712 45.668C188.796 45.5943 189.304 45.3963 189.84 45.228C190.376 45.0597 190.883 44.864 190.968 44.7929C191.053 44.7219 191.278 44.6637 191.469 44.6637C191.659 44.6637 191.864 44.6141 191.925 44.5533C191.986 44.4926 192.376 44.325 192.793 44.1808C193.541 43.9216 193.923 43.5256 193.425 43.5256C193.283 43.5256 193.168 43.4609 193.168 43.382C193.168 43.303 193.04 43.1979 192.884 43.1485C192.595 43.0575 191.368 42.3751 191.22 42.2232C191.175 42.1777 190.846 41.9948 190.489 41.8168C190.132 41.6389 189.816 41.4383 189.786 41.3713C189.756 41.3041 189.628 41.2494 189.502 41.2494C189.375 41.2494 189.271 41.1944 189.27 41.1274C189.269 41.0604 188.958 40.8603 188.58 40.6827C188.202 40.5052 187.855 40.3223 187.811 40.2761C187.766 40.2298 187.51 40.0825 187.243 39.9483C186.975 39.8144 186.659 39.6134 186.541 39.5015C186.423 39.3899 186.222 39.2983 186.095 39.2983C185.967 39.2983 185.863 39.243 185.863 39.1754C185.863 39.1078 185.625 38.9491 185.335 38.8226C185.045 38.6963 184.771 38.5446 184.727 38.4855C184.682 38.4267 184.244 38.1652 183.753 37.9048C183.262 37.6442 182.823 37.3933 182.779 37.347C182.734 37.3008 182.405 37.1172 182.048 36.9392C181.691 36.7613 181.374 36.5607 181.345 36.4937C181.315 36.4265 181.22 36.3718 181.134 36.3718C181.048 36.3718 180.578 36.1157 180.089 35.8027C179.601 35.4897 179.179 35.2337 179.152 35.2337C179.125 35.2337 178.195 34.7113 177.086 34.0728C175.976 33.4341 174.739 32.7287 174.338 32.505C173.936 32.2811 173.413 31.9621 173.176 31.7961C172.939 31.6301 172.665 31.4942 172.568 31.4942C172.47 31.4942 172.389 31.4392 172.388 31.3722C172.387 31.3052 172.058 31.1059 171.658 30.9293C171.257 30.7528 170.929 30.5516 170.929 30.4822C170.929 30.4128 170.825 30.3561 170.699 30.3561C170.572 30.3561 170.444 30.3011 170.415 30.2341C170.385 30.1671 170.068 29.9665 169.711 29.7886C169.354 29.6106 169.025 29.4277 168.981 29.3822C168.888 29.2879 168.316 28.9547 167.601 28.5793C167.333 28.4388 167.078 28.2871 167.033 28.2424C166.937 28.1468 166.214 27.7412 165.224 27.2274C164.835 27.0256 164.48 26.8182 164.436 26.7663C164.391 26.7146 163.953 26.459 163.462 26.1986C162.97 25.9379 162.532 25.6833 162.488 25.6326C162.443 25.582 162.078 25.3559 161.676 25.13C161.274 24.9044 160.69 24.5733 160.377 24.3942C160.065 24.2152 159.469 23.8793 159.054 23.6477C158.639 23.4162 158.001 23.0384 157.637 22.808C157.273 22.5778 156.906 22.3893 156.823 22.3893C156.739 22.3893 156.646 22.3344 156.617 22.2674C156.587 22.2004 156.161 21.9316 155.67 21.6705C155.179 21.4092 154.74 21.1491 154.696 21.0924C154.651 21.0356 154.286 20.8309 153.884 20.6373C153.138 20.2778 152.244 19.7714 152.099 19.6253C151.966 19.4927 151.407 19.1659 150.8 18.8661C150.487 18.7118 150.195 18.544 150.151 18.4933C150.106 18.4425 149.76 18.2559 149.381 18.0783C149.003 17.9008 148.693 17.7006 148.691 17.6337C148.69 17.5667 148.58 17.5117 148.446 17.5117C148.312 17.5117 148.202 17.4568 148.201 17.3898C148.2 17.3228 147.889 17.1227 147.511 16.9451C147.132 16.7676 146.786 16.5847 146.742 16.5386C146.65 16.4439 146.082 16.1132 145.362 15.735C145.094 15.5945 144.839 15.4428 144.794 15.3981C144.749 15.3534 144.53 15.2124 144.307 15.085C144.084 14.9573 142.696 14.1608 141.223 13.3149C139.749 12.4691 138.215 11.5942 137.814 11.3708C137.412 11.1474 137.01 10.9091 136.921 10.841C136.781 10.7341 136.002 10.2911 134.811 9.64091C134.632 9.54336 134.449 9.42662 134.405 9.3811C134.36 9.33574 133.922 9.08552 133.431 8.82489C132.94 8.56443 132.501 8.30852 132.457 8.25616C132.412 8.20397 131.956 7.94497 131.442 7.68061C130.929 7.4164 130.509 7.14245 130.509 7.07188C130.509 7.00132 130.363 6.9436 130.184 6.9436C130.006 6.9436 129.86 6.87044 129.86 6.78102C129.86 6.69159 129.759 6.61843 129.636 6.61843C129.513 6.61843 129.319 6.50543 129.204 6.3674C129 6.12026 128.229 6.164 127.83 6.44527ZM99.8599 23.1403C98.4884 23.9071 98.4694 23.9297 98.9783 24.1861C99.2228 24.3091 99.6056 24.5301 99.8288 24.6771C100.052 24.8241 100.563 25.1292 100.965 25.3554C101.367 25.5814 102.061 25.9718 102.507 26.2225C102.954 26.4733 103.355 26.7195 103.4 26.7696C103.445 26.8195 103.799 27.0256 104.188 27.2274C105.179 27.7412 105.902 28.1468 105.997 28.2424C106.042 28.2871 106.298 28.4388 106.566 28.5793C107.28 28.9547 107.853 29.2879 107.945 29.3822C107.99 29.4277 108.319 29.6106 108.676 29.7886C109.033 29.9665 109.349 30.1671 109.379 30.2341C109.409 30.3011 109.537 30.3561 109.663 30.3561C109.79 30.3561 109.894 30.411 109.895 30.478C109.896 30.545 110.206 30.7451 110.585 30.9227C110.963 31.1002 111.309 31.2831 111.354 31.3291C111.446 31.4239 112.014 31.7546 112.734 32.1328C113.002 32.2733 113.257 32.4251 113.302 32.47C113.347 32.5147 113.602 32.661 113.87 32.7949C114.138 32.9287 114.394 33.0792 114.438 33.1295C114.483 33.1795 114.848 33.4052 115.25 33.631C115.652 33.8567 116.236 34.1877 116.549 34.3669C116.861 34.5459 117.482 34.895 117.928 35.1426C118.375 35.3902 118.813 35.6486 118.902 35.7167C118.992 35.7848 119.393 36.022 119.795 36.2438C121.541 37.2078 123.616 38.3987 123.691 38.4795C123.736 38.5277 123.991 38.6746 124.259 38.806C124.527 38.9372 125.131 39.2847 125.602 39.578C126.072 39.8713 126.523 40.1112 126.603 40.1112C126.683 40.1112 126.773 40.1662 126.802 40.2332C126.832 40.3002 127.149 40.5008 127.506 40.6787C127.863 40.8567 128.192 41.0396 128.236 41.0851C128.281 41.1308 128.464 41.2466 128.642 41.3427C129.552 41.8319 130.111 42.1519 130.184 42.2249C130.229 42.2696 130.411 42.3847 130.59 42.4808C131.5 42.97 132.059 43.29 132.132 43.363C132.177 43.4077 132.359 43.5239 132.538 43.6215C133.729 44.2717 134.508 44.7147 134.648 44.8215C134.738 44.8897 135.139 45.1277 135.541 45.3508C135.943 45.5737 137.185 46.286 138.301 46.9334C140.437 48.1726 141.577 48.826 142.115 49.1202C142.294 49.2177 142.477 49.334 142.521 49.3787C142.566 49.4234 142.822 49.5751 143.089 49.7156C143.841 50.1101 144.38 50.4265 144.469 50.5252C144.514 50.5747 144.831 50.7576 145.175 50.9317C146.345 51.5251 146.417 51.5695 146.417 51.6934C146.417 51.7617 146.563 51.8175 146.742 51.8175C146.92 51.8175 147.066 51.8906 147.066 51.9801C147.066 52.0695 147.171 52.1426 147.298 52.1426C147.426 52.1426 147.627 52.2386 147.745 52.3558C147.863 52.4732 148.196 52.674 148.487 52.8021C148.777 52.9302 149.014 53.0739 149.014 53.1214C149.014 53.1689 149.342 53.3523 149.743 53.5289C150.144 53.7054 150.473 53.9046 150.474 53.9717C150.475 54.0389 150.585 54.0937 150.719 54.0937C150.853 54.0937 150.963 54.1485 150.964 54.2156C150.965 54.2828 151.276 54.4827 151.654 54.6603C152.032 54.8378 152.379 55.0207 152.423 55.0668C152.515 55.1615 153.083 55.4923 153.803 55.8704C154.071 56.0109 154.326 56.1626 154.371 56.2073C154.416 56.252 154.598 56.3683 154.777 56.4658C155.897 57.0773 156.694 57.5358 157.274 57.9023C157.638 58.1325 157.992 58.3211 158.061 58.3211C158.246 58.3214 158.975 58.9937 159.291 59.4546C159.471 59.7175 159.566 60.1791 159.566 60.7888C159.566 61.7022 159.548 61.7392 158.679 62.602C158.192 63.0865 157.488 63.7299 157.115 64.0316C156.742 64.3335 156.169 64.8366 155.842 65.1496C155.514 65.4625 154.995 65.9126 154.687 66.1498C154.379 66.3868 153.862 66.8258 153.537 67.1253C153.211 67.4246 152.641 67.9257 152.269 68.2387C151.237 69.1068 150.273 70.0272 150.396 70.0272C150.514 70.0272 151.476 69.5121 151.612 69.3768C151.656 69.3321 151.839 69.217 152.017 69.1209C152.938 68.6262 153.487 68.3115 153.559 68.2371C153.604 68.1916 153.933 68.0086 154.29 67.8306C154.647 67.6527 154.976 67.4646 155.02 67.4128C155.065 67.3609 155.339 67.2149 155.629 67.0886C155.919 66.9621 156.157 66.8188 156.157 66.7701C156.157 66.7213 156.577 66.4652 157.09 66.201C157.603 65.9366 158.06 65.6791 158.105 65.6285C158.149 65.578 158.551 65.3315 158.997 65.0806C160.531 64.2188 161.273 63.7926 162.46 63.0899C163.115 62.7025 163.676 62.3856 163.707 62.3856C163.786 62.3856 165.798 61.195 165.896 61.0899C165.941 61.0425 166.306 60.8405 166.708 60.6414C167.562 60.2178 168.652 59.5937 169.505 59.0394C169.838 58.8232 170.185 58.6461 170.276 58.6461C170.367 58.6461 170.442 58.5913 170.443 58.5242C170.444 58.457 170.773 58.2579 171.174 58.0813C171.575 57.9047 171.903 57.7036 171.903 57.6342C171.903 57.5647 172.006 57.508 172.133 57.508C172.259 57.508 172.387 57.4532 172.417 57.3861C172.446 57.3189 172.763 57.1184 173.12 56.9406C173.477 56.7625 173.806 56.5796 173.851 56.5341C174.005 56.3764 174.907 55.8586 175.352 55.6726C175.836 55.47 175.946 55.2318 175.555 55.2318C175.421 55.2318 175.312 55.305 175.312 55.3944C175.312 55.4838 175.189 55.557 175.04 55.557C174.778 55.557 172.651 56.2328 171.984 56.5283C171.805 56.6073 171.257 56.7907 170.766 56.936C170.275 57.0814 169.747 57.2695 169.592 57.354C169.437 57.4387 169.163 57.508 168.983 57.508C168.803 57.508 168.656 57.5812 168.656 57.6706C168.656 57.76 168.531 57.8332 168.377 57.8332C168.069 57.8332 167.044 58.1764 165.524 58.7884C164.696 59.1215 163.875 59.0031 162.622 58.3699C161.968 58.0392 161.408 57.7099 161.378 57.6382C161.349 57.5667 161.254 57.508 161.168 57.508C161.081 57.508 160.611 57.2519 160.123 56.9389C159.634 56.626 159.196 56.3699 159.149 56.3699C159.102 56.3699 158.683 56.1311 158.219 55.8392C157.754 55.5474 156.972 55.0959 156.481 54.8359C155.99 54.5759 155.552 54.3203 155.507 54.2678C155.463 54.2155 155.025 53.9594 154.533 53.6988C154.042 53.4383 153.604 53.1827 153.559 53.131C153.515 53.0791 153.16 52.8717 152.771 52.6699C151.78 52.156 151.058 51.7505 150.962 51.6549C150.918 51.6102 150.735 51.4951 150.556 51.399C149.646 50.9098 149.087 50.5898 149.014 50.5168C148.97 50.4721 148.787 50.357 148.608 50.2609C147.698 49.7716 147.139 49.4517 147.066 49.3787C147.022 49.334 146.839 49.2177 146.661 49.1202C145.47 48.47 144.69 48.0269 144.55 47.9201C144.461 47.852 144.059 47.6127 143.657 47.3881C143.256 47.1636 142.452 46.7059 141.872 46.3708C141.292 46.0357 140.488 45.5781 140.086 45.3535C139.684 45.129 139.283 44.8898 139.193 44.8219C139.031 44.6983 138.742 44.5338 136.921 43.5291C136.385 43.2336 135.753 42.8557 135.516 42.6895C135.279 42.5234 135.005 42.3875 134.907 42.3875C134.809 42.3875 134.729 42.3293 134.729 42.2582C134.729 42.1871 134.401 41.9932 133.999 41.8272C133.597 41.6613 133.268 41.4633 133.268 41.3874C133.268 41.3115 133.159 41.2494 133.025 41.2494C132.891 41.2494 132.781 41.1762 132.781 41.0868C132.781 40.9973 132.635 40.9242 132.457 40.9242C132.278 40.9242 132.132 40.851 132.132 40.7616C132.132 40.6722 132.028 40.599 131.9 40.599C131.773 40.599 131.572 40.5075 131.454 40.3958C131.336 40.2841 131.02 40.0828 130.752 39.9487C130.485 39.8145 130.169 39.6134 130.051 39.5015C129.933 39.3897 129.732 39.2983 129.605 39.2983C129.477 39.2983 129.373 39.243 129.373 39.1754C129.373 39.1078 129.135 38.9491 128.845 38.8226C128.555 38.6963 128.281 38.5503 128.236 38.4984C128.192 38.4465 127.863 38.2584 127.506 38.0805C127.149 37.9025 126.82 37.7196 126.775 37.6741C126.683 37.5798 126.111 37.2466 125.396 36.8712C125.128 36.7308 124.872 36.5791 124.828 36.5343C124.675 36.3815 123.448 35.7008 123.163 35.6107C123.007 35.5613 122.879 35.4562 122.879 35.3772C122.879 35.2984 122.82 35.2337 122.746 35.2337C122.673 35.2337 121.705 34.7113 120.595 34.0728C118.681 32.9713 117.517 32.3112 116.792 31.9153C116.614 31.8177 116.431 31.7015 116.386 31.6567C116.313 31.5837 115.754 31.2638 114.844 30.7746C114.666 30.6785 114.483 30.5634 114.438 30.5186C114.394 30.4739 114.211 30.3588 114.033 30.2627C113.073 29.7467 112.563 29.4522 112.49 29.3721C112.446 29.3227 112.154 29.156 111.841 29.0017C111.234 28.7019 110.675 28.3751 110.542 28.2424C110.447 28.1468 109.724 27.7413 108.734 27.2274C108.345 27.0256 107.99 26.8239 107.945 26.7792C107.901 26.7344 107.718 26.6193 107.539 26.5232C106.518 25.9739 106.062 25.7014 105.877 25.529C105.763 25.4227 105.414 25.2434 105.103 25.1305C104.791 25.0177 104.536 24.867 104.536 24.7954C104.536 24.7241 104.465 24.6655 104.377 24.6655C104.29 24.6655 103.818 24.4095 103.33 24.0965C102.841 23.7835 102.398 23.5274 102.344 23.5274C102.29 23.5274 101.978 23.3445 101.649 23.121C100.905 22.6145 100.799 22.6156 99.8599 23.1403ZM86.7 23.0291C86.5441 23.1127 86.1218 23.4601 85.7614 23.8014C85.401 24.1425 84.9308 24.5626 84.7163 24.735C83.9974 25.3125 82.3814 26.6953 82.1351 26.9437C82.0012 27.0788 81.4167 27.5901 80.8363 28.0798C80.256 28.5696 79.6715 29.0809 79.5376 29.216C79.4035 29.3513 78.8191 29.8621 78.2389 30.3513C77.6586 30.8406 77.0658 31.3711 76.9215 31.5301C76.777 31.6893 76.6074 31.8193 76.5445 31.8193C76.4816 31.8193 76.0884 32.1404 75.6707 32.5331C75.2531 32.9256 74.6557 33.4554 74.3432 33.7105C74.0307 33.9656 73.4829 34.4432 73.1257 34.7719C72.7686 35.1007 72.2573 35.5377 71.9895 35.7429C71.7216 35.9482 71.3929 36.2295 71.259 36.3679C71.125 36.5062 70.5433 37.021 69.9662 37.5118C68.7283 38.5644 68.1958 39.0297 67.4095 39.7462C67.0902 40.0374 66.5706 40.4764 66.2549 40.7218C65.9391 40.9673 65.3837 41.4523 65.0204 41.7994C64.6572 42.1467 64.1043 42.6214 63.7919 42.8544C62.8744 43.5386 62.628 43.8654 62.8382 44.119C62.9382 44.2398 63.1206 44.3385 63.2435 44.3385C63.3666 44.3385 63.4672 44.4032 63.4672 44.4821C63.4672 44.5611 63.5951 44.6661 63.7513 44.7155C64.0544 44.8115 65.2796 45.4977 65.4151 45.6476C65.4598 45.6971 65.752 45.8662 66.0645 46.0235C66.9785 46.4838 67.9247 47.0137 68.0124 47.1143C68.057 47.1655 68.2031 47.2576 68.3371 47.319C68.471 47.3803 68.7997 47.5671 69.0675 47.7341C70.1121 48.3854 71.6219 49.2161 71.7615 49.2161C71.8422 49.2161 71.9083 49.2893 71.9083 49.3787C71.9083 49.4681 71.9828 49.5413 72.0739 49.5413C72.1649 49.5413 72.5349 49.7281 72.8961 49.9565C73.2572 50.1848 73.7854 50.502 74.0697 50.6613C75.1081 51.2432 76.071 51.7908 77.1028 52.3865C78.2258 53.0349 79.4103 53.7067 79.9435 53.9978C80.1221 54.0953 80.3047 54.2116 80.3494 54.2563C80.394 54.301 80.5766 54.4161 80.7552 54.5122C81.6649 55.0012 82.2244 55.3214 82.2975 55.3944C82.3421 55.4391 82.5978 55.5908 82.8656 55.7313C83.5805 56.1067 84.1529 56.4398 84.2452 56.5341C84.2899 56.5796 84.6186 56.7625 84.9757 56.9406C85.3328 57.1184 85.6494 57.3189 85.6791 57.3861C85.709 57.453 85.8367 57.508 85.9632 57.508C86.0896 57.508 86.1932 57.5647 86.1932 57.6342C86.1932 57.7036 86.5213 57.9047 86.9222 58.0813C87.323 58.2579 87.6517 58.457 87.6527 58.5242C87.6535 58.5913 87.7257 58.6461 87.8134 58.6461C87.9009 58.6461 88.3721 58.9022 88.8607 59.2152C89.3492 59.5281 89.7959 59.7842 89.8534 59.7842C89.9108 59.7842 90.1517 59.9192 90.3887 60.084C90.6257 60.2489 91.2944 60.6423 91.8747 60.9581C92.455 61.274 93.5872 61.9173 94.3908 62.3879C96.0371 63.3518 96.2214 63.4577 98.3678 64.6716C99.216 65.1512 99.9465 65.583 99.9911 65.6311C100.036 65.6793 100.474 65.9292 100.965 66.1865C101.456 66.4438 101.894 66.6998 101.939 66.7556C101.984 66.8112 102.339 67.0219 102.727 67.2237C103.718 67.7376 104.441 68.1431 104.536 68.2387C104.581 68.2834 104.764 68.3985 104.942 68.4946C105.852 68.9838 106.411 69.3038 106.484 69.3768C106.529 69.4215 106.712 69.5366 106.89 69.6327C107.8 70.1219 108.359 70.4419 108.432 70.5149C108.477 70.5596 108.659 70.6759 108.838 70.7734C109.414 71.0879 110.598 71.7607 111.638 72.3647C112.196 72.6887 113.109 73.2187 113.667 73.5428C114.707 74.1468 115.891 74.8196 116.467 75.134C116.646 75.2316 116.829 75.3478 116.873 75.3925C116.918 75.4372 117.101 75.5523 117.279 75.6484C118.189 76.1376 118.748 76.4576 118.821 76.5306C118.866 76.5753 119.048 76.6904 119.227 76.7865C120.137 77.2758 120.696 77.5957 120.769 77.6687C120.922 77.8214 122.148 78.5023 122.433 78.5924C122.589 78.6418 122.717 78.7468 122.717 78.8259C122.717 78.9047 122.863 78.9694 123.042 78.9694C123.22 78.9694 123.366 79.0411 123.366 79.1289C123.366 79.2165 123.549 79.3343 123.772 79.3904C123.995 79.4464 124.178 79.544 124.178 79.6071C124.178 79.67 124.434 79.8222 124.746 79.9449C125.059 80.0677 125.315 80.2095 125.316 80.2599C125.317 80.3101 125.645 80.4958 126.046 80.6723C126.447 80.8489 126.775 81.05 126.775 81.1195C126.775 81.1889 126.879 81.2456 127.005 81.2456C127.132 81.2456 127.26 81.3004 127.289 81.3676C127.381 81.5744 128.35 82.0586 128.672 82.0586C129.001 82.0586 129.562 81.6597 130.503 80.7579C130.83 80.4449 131.458 79.8968 131.899 79.5399C132.339 79.1831 132.852 78.7441 133.037 78.5644C133.381 78.2295 134.077 77.6224 135.503 76.4113C135.948 76.0326 136.534 75.5205 136.804 75.2732C137.074 75.0257 137.498 74.6771 137.745 74.4983C137.993 74.3194 138.531 73.8439 138.939 73.4415C139.348 73.0391 139.971 72.493 140.325 72.2279C140.678 71.9628 141.231 71.4872 141.553 71.1711C141.875 70.8549 142.404 70.3894 142.728 70.1367C143.321 69.6752 144.301 68.8326 145.124 68.0761C145.367 67.8526 145.955 67.3404 146.43 66.938C146.904 66.5356 147.443 66.0594 147.626 65.8796C147.809 65.6999 148.169 65.3899 148.425 65.1909C148.681 64.9917 149.234 64.5168 149.654 64.1355C150.075 63.7544 150.622 63.2961 150.87 63.1172C151.69 62.5253 153.148 61.029 152.964 60.9675C152.793 60.9103 151.512 60.1674 149.775 59.1183C149.345 58.8586 148.925 58.6461 148.841 58.6461C148.758 58.6461 148.689 58.5913 148.688 58.5242C148.687 58.457 148.358 58.2579 147.958 58.0813C147.557 57.9047 147.229 57.7036 147.229 57.6342C147.229 57.5647 147.125 57.508 146.999 57.508C146.872 57.508 146.744 57.4532 146.715 57.3861C146.685 57.3189 146.368 57.1184 146.011 56.9406C145.654 56.7625 145.325 56.5796 145.281 56.5341C145.236 56.4884 145.053 56.3727 144.875 56.2766C143.965 55.7873 143.406 55.4674 143.333 55.3944C143.288 55.3497 143.106 55.2346 142.927 55.1385C142.017 54.6492 141.458 54.3293 141.385 54.2563C141.289 54.1607 140.567 53.7552 139.576 53.2412C139.187 53.0395 138.832 52.832 138.788 52.7801C138.743 52.7284 138.305 52.4724 137.814 52.2111C137.323 51.95 136.896 51.6814 136.867 51.6142C136.837 51.5471 136.752 51.4923 136.677 51.4923C136.603 51.4923 135.799 51.0533 134.892 50.5168C133.984 49.9802 133.175 49.5413 133.093 49.5413C133.011 49.5413 132.944 49.4681 132.944 49.3787C132.944 49.2893 132.878 49.2161 132.797 49.2161C132.716 49.2161 132.187 48.9511 131.62 48.627C131.054 48.303 130.261 47.853 129.86 47.6268C129.458 47.4008 129.093 47.1721 129.048 47.1186C129.003 47.0649 128.648 46.856 128.259 46.6542C127.269 46.1403 126.546 45.7348 126.451 45.6392C126.406 45.5945 126.223 45.4794 126.045 45.3833C125.124 44.8885 124.576 44.5739 124.503 44.4995C124.458 44.4539 124.129 44.271 123.772 44.093C123.415 43.9151 123.086 43.7329 123.042 43.6881C122.949 43.5948 122.368 43.2576 121.662 42.8869C121.394 42.7464 121.139 42.5948 121.094 42.55C121.003 42.4595 120.523 42.1771 119.552 41.6444C119.195 41.4485 117.889 40.6943 116.651 39.9682C115.413 39.2421 114.37 38.648 114.335 38.648C114.299 38.648 113.971 38.4595 113.607 38.2293C113.028 37.8628 112.231 37.4043 111.111 36.7929C110.932 36.6953 110.749 36.5786 110.705 36.533C110.66 36.4877 110.222 36.2375 109.731 35.9768C109.24 35.7164 108.801 35.4605 108.757 35.4081C108.712 35.3559 108.256 35.0969 107.742 34.8326C107.229 34.5683 106.809 34.2944 106.809 34.2238C106.809 34.1533 106.663 34.0955 106.484 34.0955C106.306 34.0955 106.16 34.0398 106.16 33.9715C106.16 33.8476 106.087 33.8032 104.917 33.2098C104.574 33.0356 104.256 32.8527 104.212 32.8033C104.167 32.7539 103.984 32.635 103.806 32.5389C102.896 32.0497 102.337 31.7298 102.264 31.6567C102.219 31.612 102.036 31.4969 101.858 31.4008C100.948 30.9116 100.389 30.5916 100.316 30.5186C100.271 30.4739 100.089 30.3577 99.9099 30.2601C99.3338 29.9457 98.15 29.2729 97.1098 28.6689C96.5517 28.3449 95.6386 27.8148 95.0807 27.4908C94.0405 26.8868 92.8566 26.214 92.2805 25.8996C92.1019 25.802 91.9193 25.6858 91.8747 25.6411C91.8018 25.568 91.2427 25.2481 90.3326 24.7589C90.154 24.6628 89.9714 24.547 89.9267 24.5013C89.8821 24.4558 89.5534 24.2729 89.1963 24.0949C88.8391 23.917 88.5226 23.7164 88.4929 23.6494C88.463 23.5824 88.3353 23.5274 88.2088 23.5274C88.0824 23.5274 87.9788 23.4717 87.9788 23.4034C87.9788 23.2842 87.3894 22.9382 87.1159 22.8971C87.0431 22.886 86.856 22.9455 86.7 23.0291ZM196.358 49.0129C196.076 49.1693 195.822 49.3522 195.792 49.4193C195.762 49.4865 195.64 49.5413 195.521 49.5413C195.402 49.5413 195.281 49.5961 195.251 49.6632C195.221 49.7304 194.905 49.9308 194.547 50.1087C194.19 50.2867 193.862 50.4696 193.817 50.5152C193.772 50.5608 193.59 50.6766 193.411 50.7727C192.501 51.2619 191.942 51.5819 191.869 51.6549C191.824 51.6996 191.642 51.8158 191.463 51.9134C190.272 52.5636 189.493 53.0066 189.353 53.1135C189.264 53.1816 188.862 53.4209 188.46 53.6454C188.058 53.87 187.255 54.3276 186.675 54.6627C186.094 54.9978 185.291 55.4555 184.889 55.68C184.487 55.9046 184.085 56.1439 183.996 56.212C183.856 56.3188 183.077 56.7619 181.886 57.4121C181.707 57.5096 181.525 57.6259 181.48 57.6706C181.435 57.7153 181.253 57.8304 181.074 57.9265C180.164 58.4157 179.605 58.7357 179.532 58.8087C179.459 58.8817 178.9 59.2017 177.99 59.6909C177.811 59.787 177.629 59.9058 177.584 59.9553C177.539 60.0047 177.247 60.1738 176.935 60.3312C175.973 60.8155 175.072 61.3237 174.987 61.4299C174.942 61.4857 174.504 61.7418 174.013 61.999C173.522 62.2563 173.084 62.5041 173.039 62.5498C172.994 62.5953 172.666 62.7782 172.308 62.9563C171.951 63.1341 171.623 63.3164 171.578 63.3611C171.42 63.5196 170.516 64.037 170.076 64.221C169.831 64.3238 169.63 64.4651 169.63 64.5348C169.63 64.6047 169.558 64.6618 169.471 64.6618C169.383 64.6618 168.912 64.9179 168.423 65.2309C167.935 65.5438 167.504 65.7999 167.466 65.7999C167.427 65.7999 166.392 66.3852 165.166 67.1006C163.94 67.816 162.872 68.4013 162.793 68.4013C162.714 68.4013 162.65 68.4584 162.65 68.5283C162.65 68.598 162.449 68.7393 162.203 68.8421C161.763 69.0261 160.86 69.5435 160.702 69.702C160.657 69.7467 160.329 69.929 159.971 70.1068C159.614 70.2849 159.286 70.4678 159.241 70.5133C159.168 70.5878 158.619 70.9024 157.699 71.3971C157.52 71.4932 157.338 71.6083 157.293 71.653C157.248 71.6977 157.066 71.8129 156.887 71.9089C155.927 72.425 155.418 72.7194 155.345 72.7996C155.3 72.849 155.008 73.0166 154.696 73.1722C154.383 73.3278 153.909 73.5894 153.641 73.7535C152.486 74.4602 151.082 75.2299 150.947 75.2299C150.866 75.2299 150.8 75.3031 150.8 75.3925C150.8 75.4819 150.725 75.5551 150.634 75.5551C150.543 75.5551 150.173 75.7419 149.812 75.9703C149.162 76.3815 148.885 76.5415 147.31 77.4151C146.863 77.6627 146.425 77.9211 146.336 77.9892C146.247 78.0573 145.845 78.2966 145.443 78.5212C145.041 78.7457 144.238 79.2034 143.657 79.5385C143.077 79.8736 142.274 80.3325 141.872 80.5587C141.47 80.7849 141.117 81.0318 141.087 81.1078C141.057 81.1835 140.893 81.2456 140.722 81.2456C140.551 81.2456 140.411 81.3027 140.411 81.3726C140.411 81.4424 140.21 81.5836 139.964 81.6864C139.524 81.8704 138.621 82.3878 138.463 82.5463C138.418 82.591 138.236 82.7061 138.057 82.8022C137.137 83.297 136.588 83.6116 136.515 83.6861C136.47 83.7316 136.142 83.9145 135.785 84.0925C135.427 84.2704 135.111 84.4709 135.081 84.538C135.051 84.6052 134.962 84.6599 134.881 84.6599C134.801 84.6599 134.336 84.916 133.847 85.229C133.359 85.542 132.914 85.798 132.859 85.798C132.804 85.798 132.43 86.0247 132.028 86.3016L131.297 86.8053L131.35 112.275C131.378 126.283 131.46 137.834 131.531 137.944C131.666 138.153 132.093 137.992 132.574 137.551C132.69 137.445 133.04 137.265 133.351 137.153C133.663 137.04 133.918 136.889 133.918 136.818C133.918 136.746 134.027 136.688 134.161 136.688C134.295 136.688 134.405 136.623 134.405 136.544C134.405 136.465 134.532 136.359 134.689 136.309C134.845 136.259 135.411 135.957 135.947 135.637C136.483 135.318 137.103 134.967 137.327 134.859C137.55 134.751 137.769 134.624 137.814 134.577C137.858 134.531 138.077 134.389 138.301 134.262C138.524 134.135 139.875 133.362 141.304 132.543C142.732 131.724 144.084 130.95 144.307 130.822C144.53 130.695 144.749 130.554 144.794 130.509C144.839 130.465 145.094 130.313 145.362 130.172C146.077 129.797 146.649 129.464 146.742 129.37C146.786 129.324 147.115 129.141 147.472 128.963C147.829 128.785 148.146 128.585 148.176 128.518C148.205 128.451 148.333 128.396 148.46 128.396C148.586 128.396 148.69 128.341 148.691 128.274C148.693 128.207 149.003 128.007 149.381 127.829C149.76 127.652 150.106 127.469 150.151 127.423C150.242 127.328 150.81 126.997 151.53 126.619C151.798 126.478 152.054 126.327 152.098 126.282C152.244 126.136 153.138 125.629 153.884 125.27C154.286 125.077 154.651 124.872 154.696 124.815C154.74 124.758 155.179 124.499 155.67 124.238C156.161 123.978 156.599 123.724 156.644 123.675C156.688 123.626 157.486 123.15 158.417 122.617C159.348 122.084 160.517 121.408 161.014 121.114C161.512 120.82 162.029 120.533 162.163 120.476C162.297 120.418 162.443 120.329 162.488 120.277C162.532 120.225 162.97 119.97 163.462 119.709C163.953 119.448 164.391 119.189 164.436 119.133C164.48 119.076 164.772 118.901 165.085 118.744C165.916 118.325 166.939 117.758 167.033 117.665C167.077 117.62 167.26 117.505 167.439 117.409C168.349 116.92 168.908 116.6 168.981 116.527C169.025 116.482 169.208 116.367 169.387 116.271C170.307 115.776 170.856 115.462 170.929 115.387C170.973 115.342 171.302 115.159 171.659 114.981C172.016 114.803 172.333 114.602 172.362 114.535C172.392 114.468 172.52 114.413 172.647 114.413C172.773 114.413 172.877 114.349 172.877 114.27C172.877 114.191 173.004 114.085 173.161 114.035C173.317 113.985 173.81 113.729 174.256 113.467C175.892 112.508 177.776 111.425 178.907 110.794C179.322 110.563 179.96 110.185 180.324 109.954C180.688 109.724 181.061 109.536 181.152 109.536C181.243 109.536 181.318 109.471 181.318 109.392C181.318 109.313 181.445 109.208 181.602 109.159C181.89 109.068 183.117 108.385 183.266 108.233C183.31 108.188 183.639 108.005 183.996 107.827C184.353 107.649 184.67 107.449 184.699 107.381C184.729 107.314 184.857 107.259 184.984 107.259C185.11 107.259 185.214 107.203 185.214 107.133C185.214 107.064 185.542 106.863 185.943 106.686C186.343 106.51 186.672 106.324 186.673 106.274C186.674 106.223 186.93 106.082 187.243 105.959C187.555 105.836 187.811 105.681 187.811 105.614C187.811 105.547 187.967 105.443 188.158 105.383C188.349 105.322 188.948 104.985 189.49 104.635C190.032 104.284 190.642 103.955 190.847 103.904C191.052 103.852 191.22 103.745 191.22 103.665C191.22 103.585 191.291 103.52 191.379 103.52C191.466 103.52 191.938 103.264 192.426 102.951C192.915 102.638 193.356 102.382 193.407 102.382C193.457 102.382 193.803 102.189 194.176 101.954C194.958 101.459 196.33 100.664 196.861 100.399L197.226 100.216V74.4721C197.226 55.9189 197.176 48.7283 197.048 48.7283C196.95 48.7283 196.64 48.8564 196.358 49.0129ZM60.8699 74.4955V100.263L61.641 100.672C62.065 100.896 62.8504 101.339 63.386 101.656C63.9217 101.972 64.4696 102.278 64.6035 102.335C64.7374 102.392 64.8835 102.481 64.9282 102.533C64.9728 102.584 65.1554 102.704 65.334 102.8C66.2437 103.289 66.8032 103.61 66.8763 103.683C66.9209 103.727 67.1766 103.879 67.4444 104.019C68.1593 104.395 68.7317 104.728 68.8241 104.822C68.8687 104.868 69.1974 105.051 69.5545 105.229C69.9117 105.407 70.2282 105.607 70.2579 105.674C70.2878 105.741 70.3775 105.796 70.4577 105.796C70.5378 105.796 70.9882 106.036 71.4588 106.329C71.9292 106.623 72.5332 106.97 72.8011 107.102C73.0689 107.233 73.3611 107.398 73.4504 107.468C73.7051 107.668 75.3349 108.608 76.0496 108.967C76.4056 109.145 76.7213 109.347 76.751 109.414C76.7809 109.481 76.8736 109.536 76.9572 109.536C77.0408 109.536 77.4047 109.722 77.7659 109.951C78.1271 110.179 78.6553 110.496 78.9395 110.656C80.0513 111.279 80.9596 111.796 81.9321 112.361C83.17 113.08 84.672 113.948 85.2192 114.262C85.4424 114.39 85.6616 114.532 85.7062 114.578C85.7508 114.624 86.0969 114.807 86.4755 114.985C86.8539 115.162 87.1642 115.362 87.1654 115.429C87.1664 115.497 87.2706 115.551 87.3972 115.551C87.5236 115.551 87.6514 115.606 87.6813 115.673C87.711 115.74 88.0275 115.941 88.3846 116.119C88.7417 116.297 89.0705 116.48 89.1151 116.525C89.1597 116.571 89.3424 116.687 89.5209 116.783C90.4311 117.272 90.9902 117.592 91.063 117.665C91.1585 117.761 91.881 118.166 92.8719 118.68C93.2608 118.882 93.6157 119.091 93.6603 119.144C93.7049 119.198 94.0702 119.427 94.4719 119.653C94.8737 119.879 95.6772 120.338 96.2576 120.673C96.8379 121.008 97.6414 121.468 98.0432 121.696C98.4449 121.923 99.3093 122.427 99.964 122.814C100.619 123.201 101.221 123.518 101.303 123.518C101.385 123.518 101.452 123.583 101.452 123.662C101.452 123.741 101.58 123.846 101.736 123.895C102.021 123.985 103.248 124.666 103.4 124.819C103.445 124.864 103.799 125.065 104.188 125.267C105.179 125.781 105.902 126.186 105.997 126.282C106.13 126.415 106.689 126.742 107.296 127.041C107.608 127.196 107.901 127.363 107.945 127.414C107.99 127.465 108.336 127.652 108.714 127.829C109.093 128.007 109.403 128.207 109.404 128.274C109.405 128.341 109.516 128.396 109.65 128.396C109.784 128.396 109.894 128.451 109.895 128.518C109.896 128.585 110.206 128.785 110.585 128.962C110.963 129.14 111.309 129.323 111.354 129.369C111.446 129.464 112.014 129.794 112.734 130.172C113.002 130.313 113.257 130.465 113.302 130.509C113.347 130.554 113.566 130.695 113.789 130.822C114.012 130.95 115.4 131.747 116.873 132.593C118.346 133.438 119.88 134.313 120.282 134.537C120.684 134.76 121.086 134.998 121.175 135.066C121.315 135.173 122.094 135.616 123.285 136.267C123.464 136.364 123.646 136.48 123.691 136.525C123.736 136.57 123.918 136.685 124.097 136.781C125.007 137.27 125.566 137.59 125.639 137.663C125.881 137.906 126.486 138.148 126.628 138.06C126.738 137.992 126.777 129.527 126.746 112.407L126.699 86.8549L126.307 86.5033C126.091 86.31 125.725 86.0561 125.493 85.9392C125.261 85.8223 124.686 85.4865 124.216 85.1932C123.745 84.8999 123.294 84.6599 123.214 84.6599C123.134 84.6599 123.045 84.6052 123.015 84.538C122.985 84.4709 122.668 84.2704 122.311 84.0925C121.954 83.9145 121.625 83.7316 121.581 83.6861C121.536 83.6404 121.354 83.5246 121.175 83.4285C120.265 82.9393 119.706 82.6193 119.633 82.5463C119.48 82.3937 118.254 81.7127 117.969 81.6227C117.813 81.5732 117.685 81.4682 117.685 81.3892C117.685 81.3103 117.539 81.2456 117.36 81.2456C117.182 81.2456 117.036 81.1879 117.036 81.1173C117.036 81.0468 116.616 80.7728 116.102 80.5086C115.589 80.2443 115.132 79.9853 115.088 79.9331C115.043 79.8807 114.605 79.6243 114.114 79.363C113.623 79.1019 113.197 78.8333 113.167 78.7662C113.137 78.699 113.052 78.6442 112.977 78.6442C112.903 78.6442 112.306 78.3274 111.652 77.9399C110.485 77.2501 109.821 76.8677 108.189 75.9477C107.742 75.6962 107.353 75.4317 107.323 75.3602C107.293 75.2885 107.209 75.2299 107.136 75.2299C107.062 75.2299 106.539 74.9649 105.972 74.6409C104.724 73.927 103.595 73.2888 103.157 73.0496C102.978 72.9521 102.795 72.8358 102.751 72.7911C102.706 72.7464 102.523 72.6313 102.345 72.5352C101.424 72.0405 100.876 71.7259 100.803 71.6514C100.758 71.6059 100.429 71.423 100.072 71.2449C99.7151 71.0671 99.3986 70.8666 99.3689 70.7994C99.339 70.7323 99.2113 70.6775 99.0848 70.6775C98.9582 70.6775 98.854 70.6227 98.853 70.5556C98.8519 70.4884 98.5415 70.2884 98.1631 70.1109C97.7846 69.9333 97.4385 69.7504 97.3939 69.7044C97.2968 69.6043 96.7608 69.2923 95.7751 68.7624C95.3759 68.5478 94.8646 68.2426 94.6388 68.0844C94.4132 67.9262 93.9363 67.6622 93.5791 67.4978C93.222 67.3334 92.8933 67.1562 92.8487 67.1042C92.7527 66.992 90.7441 65.7999 90.6514 65.7999C90.6163 65.7999 89.7321 65.2878 88.6864 64.6618C87.6408 64.0358 86.7313 63.5237 86.6651 63.5237C86.599 63.5237 86.5206 63.4689 86.4907 63.4018C86.461 63.3346 86.1445 63.1341 85.7874 62.9563C85.4302 62.7782 85.1015 62.5953 85.0569 62.5498C85.0123 62.5041 84.574 62.2563 84.0829 61.999C83.5919 61.7418 83.1536 61.4857 83.1089 61.4299C83.0643 61.3743 82.7095 61.1636 82.3205 60.9618C81.3297 60.4479 80.6071 60.0424 80.5117 59.9468C80.467 59.9021 80.2844 59.787 80.1059 59.6909C79.1957 59.2017 78.6366 58.8817 78.5638 58.8087C78.5191 58.764 78.3365 58.6489 78.1579 58.5528C77.2478 58.0636 76.6887 57.7436 76.6158 57.6706C76.5712 57.6259 76.3885 57.5096 76.21 57.4121C75.019 56.7619 74.2396 56.3188 74.0997 56.212C74.0104 56.1439 73.6087 55.9046 73.2069 55.68C72.8051 55.4555 72.0016 54.9978 71.4213 54.6627C70.2983 54.0143 69.1138 53.3425 68.5806 53.0515C68.402 52.954 68.2194 52.8377 68.1746 52.793C68.1299 52.7483 67.8743 52.5966 67.6064 52.4561C66.9009 52.0856 66.3201 51.7484 66.2266 51.6549C66.182 51.6102 65.9263 51.4585 65.6585 51.318C64.9275 50.9341 64.3698 50.6085 64.2789 50.5122C64.2342 50.4651 63.8871 50.2893 63.5078 50.1219C63.1284 49.9542 62.8179 49.7551 62.8179 49.6791C62.8179 49.6034 62.7083 49.5413 62.5744 49.5413C62.4405 49.5413 62.3309 49.4681 62.3309 49.3787C62.3309 49.2893 62.2161 49.2161 62.0759 49.2161C61.9355 49.2161 61.7111 49.1063 61.5772 48.9722C60.838 48.2318 60.8699 47.0802 60.8699 74.4955Z" fill="black"/>
<path fill-rule="evenodd" clip-rule="evenodd" d="M226.712 15.7464C226.55 16.2693 226.483 32.1872 226.407 88.2038L226.35 130.311L227.02 130.981L227.69 131.651L242.028 131.636L256.366 131.621L257.045 130.942L257.724 130.264L257.75 77.8891C257.775 27.169 257.738 17.6182 257.506 15.9687C257.41 15.283 257.357 15.1582 257.075 14.9428C256.873 14.7885 256.475 14.6597 256.005 14.5957C255.116 14.4748 234.482 14.4267 231.086 14.5377C228.555 14.6204 227.35 14.7916 227.04 15.1128C226.933 15.2228 226.786 15.5079 226.712 15.7464ZM242.437 18.3397L253.949 18.3327L253.893 73.0043L253.838 127.676L242.032 127.688L230.227 127.7L230.23 123.902C230.231 121.813 230.263 120.074 230.299 120.037C230.336 120 231.803 119.957 233.559 119.94C236.618 119.911 237.724 119.812 238.203 119.525C238.511 119.34 238.82 118.725 238.866 118.208C238.944 117.302 238.287 116.446 237.358 116.245C237.058 116.18 235.405 116.104 233.684 116.075C231.962 116.047 230.506 115.976 230.448 115.918C230.33 115.8 230.224 113.025 230.238 110.44L230.248 108.735L232.528 108.654C233.782 108.609 234.966 108.509 235.158 108.431C235.807 108.169 236.257 107.043 236.016 106.284C235.657 105.15 235.061 104.884 232.76 104.831C231.891 104.81 231.004 104.783 230.789 104.77L230.4 104.747L230.397 101.768C230.396 100.13 230.419 98.4952 230.449 98.1352L230.504 97.4805L233.451 97.4412C237.107 97.3926 237.856 97.3007 238.312 96.8454C238.956 96.2014 239.075 95.3408 238.628 94.5637C238.342 94.0663 237.963 93.8101 237.33 93.6875C237.053 93.6336 235.382 93.5667 233.617 93.5386L230.409 93.4878L230.413 89.9611C230.416 88.0213 230.446 86.4062 230.48 86.3721C230.515 86.3379 231.299 86.2895 232.225 86.2647C234.484 86.2038 235.131 86.079 235.573 85.6193C235.995 85.1798 236.218 84.4062 236.085 83.84C235.798 82.6203 235.02 82.315 232.088 82.2716L230.422 82.2467L230.425 78.655L230.429 75.0633L233.675 75.0048C235.46 74.9726 237.149 74.9019 237.429 74.8474C238.229 74.6917 238.894 73.9222 238.924 73.119C238.942 72.6388 238.71 71.9878 238.418 71.695C238.011 71.2884 237.168 71.1939 233.762 71.173C232.006 71.1622 230.538 71.1225 230.5 71.0847C230.463 71.0469 230.434 69.3779 230.436 67.3761L230.441 63.7362L232.415 63.705C234.675 63.6693 235.43 63.4942 235.787 62.9226C236.254 62.1769 236.229 61.3125 235.721 60.5718C235.381 60.0758 234.935 59.9794 232.58 59.8925L230.443 59.8137L230.453 56.1478L230.463 52.482L233.695 52.4425C235.473 52.4207 237.183 52.3523 237.495 52.2905C238.012 52.188 238.101 52.134 238.488 51.6826C239.005 51.0816 239.109 50.6163 238.878 49.9488C238.635 49.2497 238.236 48.8999 237.514 48.7538C237.183 48.687 235.459 48.6201 233.684 48.6052L230.457 48.5782L230.459 44.9384C230.461 42.9366 230.481 41.2792 230.505 41.2555C230.529 41.2317 231.476 41.1877 232.609 41.1574C233.743 41.1273 234.83 41.0514 235.026 40.9887C235.494 40.8394 236.1 40.1367 236.169 39.6622C236.263 39.0187 236.144 38.6456 235.677 38.1145C235.099 37.4574 234.819 37.3738 233.084 37.3377C232.322 37.3219 231.422 37.3 231.083 37.289L230.468 37.2692L230.471 33.635L230.473 30.0008L233.339 29.9454C236.593 29.8824 237.944 29.7582 238.343 29.4853C238.877 29.1196 239.134 28.0095 238.85 27.2978C238.774 27.1096 238.563 26.8061 238.381 26.6233C238.087 26.3296 237.934 26.2783 237.068 26.1829C236.528 26.1235 234.82 26.0592 233.272 26.0402L230.458 26.0055L230.497 22.2312C230.529 19.1668 230.573 18.4467 230.73 18.402C230.837 18.3716 236.105 18.3436 242.437 18.3397Z" fill="#F96666"/>
</svg>
