<svg width="432" height="200" viewBox="0 0 432 200" fill="none" xmlns="http://www.w3.org/2000/svg">
<g clip-path="url(#clip0_36_115026)">
<path d="M378.925 19H61.1126C58.4329 19 56.2605 21.1332 56.2605 23.7647V176.235C56.2605 178.867 58.4329 181 61.1126 181H378.925C381.604 181 383.777 178.867 383.777 176.235V23.7647C383.777 21.1332 381.604 19 378.925 19Z" fill="url(#paint0_linear_36_115026)"/>
<path d="M378.925 19H61.1126C58.4329 19 56.2605 21.1332 56.2605 23.7647V176.235C56.2605 178.867 58.4329 181 61.1126 181H378.925C381.604 181 383.777 178.867 383.777 176.235V23.7647C383.777 21.1332 381.604 19 378.925 19Z" fill="#5A16A3"/>
<path d="M87.4045 19V181" stroke="white" stroke-opacity="0.41" stroke-dasharray="4.01 4.01"/>
<path d="M151.702 19V181" stroke="white" stroke-opacity="0.41" stroke-dasharray="4.01 4.01"/>
<path d="M212.986 19V181" stroke="white" stroke-opacity="0.41" stroke-dasharray="4.01 4.01"/>
<path d="M277.284 19V181" stroke="white" stroke-opacity="0.41" stroke-dasharray="4.01 4.01"/>
<path d="M342.586 19V181" stroke="white" stroke-opacity="0.41" stroke-dasharray="4.01 4.01"/>
<path d="M56.2605 132L383.777 132" stroke="white" stroke-opacity="0.41"/>
<path d="M56.2605 72L383.777 72" stroke="white" stroke-opacity="0.41"/>
<path d="M-160.306 144.664C-123.335 120.463 -112.908 104.937 -56.0298 95.3478C0.847905 85.7585 -20.5751 98.0875 50.9961 97.1743C122.567 96.261 154.52 71.1462 213.136 71.1462C260.277 71.1462 279.038 83.9319 298.224 92.1513C338.638 109.465 405.908 132.792 440.983 133.248C476.057 133.705 518.98 113.613 568.142 116.809" stroke="#FF5244" stroke-width="4"/>
<path d="M-50.6848 162.055C-23.8938 151.603 42.5479 128.426 93.9866 119.337C158.285 107.976 224.947 145.241 319.977 139.333C396 134.607 477.413 89.7977 508.617 67.9841" stroke="#FFC148" stroke-width="4"/>
<path d="M89.5825 94.4669C89.5825 93.379 88.795 92.4901 87.8144 92.4901C86.8338 92.4901 86.0464 93.379 86.0464 94.4669C86.0464 95.5538 86.8338 96.4427 87.8144 96.4427C88.795 96.4427 89.5825 95.5538 89.5825 94.4669Z" fill="#7B3EAF" stroke="#FF5244" stroke-width="4"/>
<path d="M214.525 71.5415C214.525 70.4547 213.737 69.5654 212.757 69.5654C211.776 69.5654 210.989 70.4547 210.989 71.5415C210.989 72.6284 211.776 73.518 212.757 73.518C213.737 73.518 214.525 72.6284 214.525 71.5415Z" fill="#7B3EAF" stroke="#FF5244" stroke-width="4"/>
<path d="M343.007 108.695C343.007 109.783 342.219 110.672 341.239 110.672C340.258 110.672 339.471 109.783 339.471 108.695C339.471 107.608 340.258 106.719 341.239 106.719C342.219 106.719 343.007 107.608 343.007 108.695Z" fill="#7B3EAF" stroke="#FF5244" stroke-width="4"/>
<path d="M89.5825 121.344C89.5825 120.257 88.795 119.368 87.8144 119.368C86.8338 119.368 86.0464 120.257 86.0464 121.344C86.0464 122.43 86.8338 123.32 87.8144 123.32C88.795 123.32 89.5825 122.43 89.5825 121.344Z" fill="#7B3EAF" stroke="#FFC148" stroke-width="4"/>
<path d="M214.525 131.225C214.525 130.356 213.737 129.644 212.757 129.644C211.776 129.644 210.989 130.356 210.989 131.225C210.989 132.094 211.776 132.806 212.757 132.806C213.737 132.806 214.525 132.094 214.525 131.225Z" fill="#7B3EAF" stroke="#FFC148" stroke-width="4"/>
<path d="M343.007 137.155C343.007 136.068 342.219 135.178 341.239 135.178C340.258 135.178 339.471 136.068 339.471 137.155C339.471 138.242 340.258 139.13 341.239 139.13C342.219 139.13 343.007 138.242 343.007 137.155Z" fill="#7B3EAF" stroke="#FFC148" stroke-width="4"/>
</g>
<defs>
<linearGradient id="paint0_linear_36_115026" x1="-3.63414" y1="-33.8356" x2="228.201" y2="315.588" gradientUnits="userSpaceOnUse">
<stop stop-color="#B257EA"/>
<stop offset="1" stop-color="#5C2F8E"/>
</linearGradient>
<clipPath id="clip0_36_115026">
<rect width="432" height="200" fill="white"/>
</clipPath>
</defs>
</svg>
