<svg width="432" height="200" viewBox="0 0 432 200" fill="none" xmlns="http://www.w3.org/2000/svg">
<g clip-path="url(#clip0_36_115060)">
<path d="M378.805 18.9999H53.1943C50.4488 18.9999 48.2231 21.1331 48.2231 23.7646V176.235C48.2231 178.867 50.4488 181 53.1943 181H378.805C381.551 181 383.777 178.867 383.777 176.235V23.7646C383.777 21.1331 381.551 18.9999 378.805 18.9999Z" fill="#F4F8FF"/>
<path d="M74.344 18.9999V181" stroke="#898989" stroke-opacity="0.41" stroke-dasharray="3.01 3.01"/>
<path d="M138.642 18.9999V181" stroke="#898989" stroke-opacity="0.41" stroke-dasharray="3.01 3.01"/>
<path d="M201.935 18.9999V181" stroke="#898989" stroke-opacity="0.41" stroke-dasharray="3.01 3.01"/>
<path d="M265.228 18.9999V181" stroke="#898989" stroke-opacity="0.41" stroke-dasharray="3.01 3.01"/>
<path d="M333.544 18.9999L333.544 181" stroke="#898989" stroke-opacity="0.41" stroke-dasharray="3.01 3.01"/>
<path d="M48.2231 128H383.777" stroke="#898989" stroke-opacity="0.41"/>
<path d="M48.2231 75.9999H383.777" stroke="#898989" stroke-opacity="0.41"/>
<path d="M-9 180C-9 180 65.3798 180 71.6181 180C77.8564 180 73.5375 154.398 79.296 154.398C85.0544 154.398 81.2155 180 86.9739 180C92.7323 180 94.1719 180 102.81 180C111.447 180 104.249 21.6651 110.008 21.6651C115.766 21.6651 109.048 180 118.645 180C128.243 180 125.843 180 125.843 180C131.653 131.845 128.723 55.9316 134.481 55.9316C140.239 55.9316 134.481 180 142.639 180C150.797 180 154.635 180 157.995 180C161.354 180 161.834 142.976 161.834 142.976C161.834 142.976 160.394 100.832 164.713 100.832C169.032 100.832 168.072 142.976 168.072 142.976C168.072 142.976 169.032 180 173.83 180C178.629 180 178.149 180 189.186 180C200.223 180 192.065 83.5023 197.824 83.5023C203.582 83.5023 199.743 180 208.381 180C217.018 180 213.659 180 213.659 180C216.662 180.175 216.059 69.7169 220.378 69.7169C224.696 69.7169 221.817 180 229.015 180C236.213 180 233.848 135.035 236.213 135.099C238.578 135.163 238.613 180 244.851 180C251.089 180 248.21 12.9999 252.049 13C255.888 13.0001 252.049 180 261.166 180C270.284 180 263.086 180 268.844 180C274.603 180 272.203 98.0754 276.042 97.6815C279.881 97.2876 276.042 180 286.12 180C288.039 180 284.2 180 291.878 180C299.556 180 296.197 48.0542 299.556 48.0542C302.915 48.0542 301.476 180 308.194 180C315.392 180 311.553 91.7735 315.392 91.3796C319.231 90.9858 317.311 180 323.55 180C329.788 180 326.429 180 332.187 180C337.946 180 334.587 139.431 337.946 139.431C341.305 139.431 342.744 180 347.543 180C352.342 180 432 180 432 180" stroke="#FF5244" stroke-width="2"/>
<path d="M81.3768 154C81.3768 152.893 80.475 152 79.3674 152C78.2598 152 77.3582 152.893 77.3582 154C77.3582 155.107 78.2598 156 79.3674 156C80.475 156 81.3768 155.107 81.3768 154Z" fill="white" stroke="#FF5244" stroke-width="2"/>
<path d="M88.4092 177C89.5189 177 90.4185 177.895 90.4185 179C90.4185 180.105 89.5189 181 88.4092 181C87.2995 181 86.3999 180.105 86.3999 179C86.3999 177.895 87.2995 177 88.4092 177Z" fill="white" stroke="#FF5244" stroke-width="2"/>
<path d="M103.479 177C104.589 177 105.488 177.895 105.488 179C105.488 180.105 104.589 181 103.479 181C102.369 181 101.47 180.105 101.47 179C101.47 177.895 102.369 177 103.479 177Z" fill="white" stroke="#FF5244" stroke-width="2"/>
<path d="M118.549 177C119.659 177 120.558 177.895 120.558 179C120.558 180.105 119.659 181 118.549 181C117.439 181 116.54 180.105 116.54 179C116.54 177.895 117.439 177 118.549 177Z" fill="white" stroke="#FF5244" stroke-width="2"/>
<path d="M125.581 177C126.691 177 127.591 177.895 127.591 179C127.591 180.105 126.691 181 125.581 181C124.472 181 123.572 180.105 123.572 179C123.572 177.895 124.472 177 125.581 177Z" fill="white" stroke="#FF5244" stroke-width="2"/>
<path d="M141.656 177C142.765 177 143.665 177.895 143.665 179C143.665 180.105 142.765 181 141.656 181C140.546 181 139.646 180.105 139.646 179C139.646 177.895 140.546 177 141.656 177Z" fill="white" stroke="#FF5244" stroke-width="2"/>
<path d="M159.74 177C160.849 177 161.749 177.895 161.749 179C161.749 180.105 160.849 181 159.74 181C158.63 181 157.73 180.105 157.73 179C157.73 177.895 158.63 177 159.74 177Z" fill="white" stroke="#FF5244" stroke-width="2"/>
<path d="M174.809 177C175.919 177 176.819 177.895 176.819 179C176.819 180.105 175.919 181 174.809 181C173.7 181 172.8 180.105 172.8 179C172.8 177.895 173.7 177 174.809 177Z" fill="white" stroke="#FF5244" stroke-width="2"/>
<path d="M189.879 177C190.989 177 191.888 177.895 191.888 179C191.888 180.105 190.989 181 189.879 181C188.769 181 187.87 180.105 187.87 179C187.87 177.895 188.769 177 189.879 177Z" fill="white" stroke="#FF5244" stroke-width="2"/>
<path d="M207.963 177C209.073 177 209.972 177.895 209.972 179C209.972 180.105 209.073 181 207.963 181C206.853 181 205.954 180.105 205.954 179C205.954 177.895 206.853 177 207.963 177Z" fill="white" stroke="#FF5244" stroke-width="2"/>
<path d="M212.986 177C214.096 177 214.995 177.895 214.995 179C214.995 180.105 214.096 181 212.986 181C211.876 181 210.977 180.105 210.977 179C210.977 177.895 211.876 177 212.986 177Z" fill="white" stroke="#FF5244" stroke-width="2"/>
<path d="M229.061 177C230.17 177 231.07 177.895 231.07 179C231.07 180.105 230.17 181 229.061 181C227.951 181 227.051 180.105 227.051 179C227.051 177.895 227.951 177 229.061 177Z" fill="white" stroke="#FF5244" stroke-width="2"/>
<path d="M244.13 177C245.24 177 246.139 177.895 246.139 179C246.139 180.105 245.24 181 244.13 181C243.02 181 242.121 180.105 242.121 179C242.121 177.895 243.02 177 244.13 177Z" fill="white" stroke="#FF5244" stroke-width="2"/>
<path d="M260.205 177C261.314 177 262.214 177.895 262.214 179C262.214 180.105 261.314 181 260.205 181C259.095 181 258.195 180.105 258.195 179C258.195 177.895 259.095 177 260.205 177Z" fill="white" stroke="#FF5244" stroke-width="2"/>
<path d="M270.251 177C271.361 177 272.261 177.895 272.261 179C272.261 180.105 271.361 181 270.251 181C269.142 181 268.242 180.105 268.242 179C268.242 177.895 269.142 177 270.251 177Z" fill="white" stroke="#FF5244" stroke-width="2"/>
<path d="M285.321 177C286.431 177 287.33 177.895 287.33 179C287.33 180.105 286.431 181 285.321 181C284.211 181 283.312 180.105 283.312 179C283.312 177.895 284.211 177 285.321 177Z" fill="white" stroke="#FF5244" stroke-width="2"/>
<path d="M292.354 177C293.463 177 294.363 177.895 294.363 179C294.363 180.105 293.463 181 292.354 181C291.244 181 290.344 180.105 290.344 179C290.344 177.895 291.244 177 292.354 177Z" fill="white" stroke="#FF5244" stroke-width="2"/>
<path d="M307.423 177C308.533 177 309.433 177.895 309.433 179C309.433 180.105 308.533 181 307.423 181C306.314 181 305.414 180.105 305.414 179C305.414 177.895 306.314 177 307.423 177Z" fill="white" stroke="#FF5244" stroke-width="2"/>
<path d="M322.493 177C323.603 177 324.502 177.895 324.502 179C324.502 180.105 323.603 181 322.493 181C321.383 181 320.484 180.105 320.484 179C320.484 177.895 321.383 177 322.493 177Z" fill="white" stroke="#FF5244" stroke-width="2"/>
<path d="M331.535 177C332.645 177 333.544 177.895 333.544 179C333.544 180.105 332.645 181 331.535 181C330.425 181 329.526 180.105 329.526 179C329.526 177.895 330.425 177 331.535 177Z" fill="white" stroke="#FF5244" stroke-width="2"/>
<path d="M346.605 177C347.714 177 348.614 177.895 348.614 179C348.614 180.105 347.714 181 346.605 181C345.495 181 344.595 180.105 344.595 179C344.595 177.895 345.495 177 346.605 177Z" fill="white" stroke="#FF5244" stroke-width="2"/>
<path d="M111.516 19C111.516 17.8934 110.615 17 109.507 17C108.4 17 107.498 17.8934 107.498 19C107.498 20.1066 108.4 21 109.507 21C110.615 21 111.516 20.1066 111.516 19Z" fill="white" stroke="#FF5244" stroke-width="2"/>
<path d="M238.102 134C238.102 132.893 237.201 132 236.094 132C234.986 132 234.084 132.893 234.084 134C234.084 135.107 234.986 136 236.094 136C237.201 136 238.102 135.107 238.102 134Z" fill="white" stroke="#FF5244" stroke-width="2"/>
<path d="M277.284 97C277.284 95.893 276.383 95 275.275 95C274.167 95 273.265 95.893 273.265 97C273.265 98.107 274.167 99 275.275 99C276.383 99 277.284 98.107 277.284 97Z" fill="white" stroke="#FF5244" stroke-width="2"/>
<path d="M301.395 47C301.395 45.8934 300.493 45 299.386 45C298.278 45 297.377 45.8934 297.377 47C297.377 48.1066 298.278 49 299.386 49C300.493 49 301.395 48.1066 301.395 47Z" fill="white" stroke="#FF5244" stroke-width="2"/>
<path d="M316.465 92C316.465 90.893 315.564 90 314.456 90C313.348 90 312.447 90.893 312.447 92C312.447 93.107 313.348 94 314.456 94C315.564 94 316.465 93.107 316.465 92Z" fill="white" stroke="#FF5244" stroke-width="2"/>
<path d="M338.567 141C338.567 139.893 337.665 139 336.558 139C335.45 139 334.549 139.893 334.549 141C334.549 142.107 335.45 143 336.558 143C337.665 143 338.567 142.107 338.567 141Z" fill="white" stroke="#FF5244" stroke-width="2"/>
<path d="M136.633 57C136.633 55.8934 135.731 55 134.623 55C133.515 55 132.614 55.8934 132.614 57C132.614 58.1066 133.515 59 134.623 59C135.731 59 136.633 58.1066 136.633 57Z" fill="white" stroke="#FF5244" stroke-width="2"/>
<path d="M166.772 102C166.772 100.893 165.871 100 164.763 100C163.656 100 162.753 100.893 162.753 102C162.753 103.107 163.656 104 164.763 104C165.871 104 166.772 103.107 166.772 102Z" fill="white" stroke="#FF5244" stroke-width="2"/>
<path d="M221.023 70C221.023 68.8934 220.122 68 219.014 68C217.907 68 217.005 68.8934 217.005 70C217.005 71.1066 217.907 72 219.014 72C220.122 72 221.023 71.1066 221.023 70Z" fill="white" stroke="#FF5244" stroke-width="2"/>
<path d="M253.172 12C253.172 10.8934 252.27 10 251.163 10C250.056 10 249.154 10.8934 249.154 12C249.154 13.1066 250.056 14 251.163 14C252.27 14 253.172 13.1066 253.172 12Z" fill="white" stroke="#FF5244" stroke-width="2"/>
<path d="M198.921 83C198.921 81.8934 198.019 81 196.912 81C195.804 81 194.902 81.8934 194.902 83C194.902 84.1066 195.804 85 196.912 85C198.019 85 198.921 84.1066 198.921 83Z" fill="white" stroke="#FF5244" stroke-width="2"/>
</g>
<defs>
<clipPath id="clip0_36_115060">
<rect width="432" height="200" fill="white"/>
</clipPath>
</defs>
</svg>
