<svg xmlns="http://www.w3.org/2000/svg" version="1.0" width="512.000000pt" height="512.000000pt" viewBox="0 0 512.000000 512.000000" preserveAspectRatio="xMidYMid meet">

<g transform="translate(0.000000,512.000000) scale(0.100000,-0.100000)" fill="#E40613" stroke="none">
<path d="M0 3880 l0 -1240 2560 0 2560 0 0 1240 0 1240 -2560 0 -2560 0 0 -1240z m4950 0 l0 -1070 -2390 0 -2390 0 0 1070 0 1070 2390 0 2390 0 0 -1070z"/>
<path d="M660 4722 c-47 -90 -172 -215 -262 -262 l-68 -35 0 -541 0 -541 82 -50 c105 -64 176 -136 240 -240 l51 -83 1857 0 1857 0 51 83 c64 104 135 176 240 240 l82 50 0 541 0 541 -68 35 c-90 47 -215 172 -262 262 l-35 68 -1865 0 -1865 0 -35 -68z m1313 -151 c-221 -183 -345 -492 -314 -780 25 -228 113 -404 282 -565 l90 -86 -618 0 -618 0 -30 47 c-38 61 -157 180 -218 218 l-47 30 0 446 0 446 53 35 c67 45 160 138 205 206 l35 52 619 0 619 0 -58 -49z m807 19 c258 -87 435 -278 501 -540 18 -71 21 -103 16 -200 -9 -205 -72 -348 -216 -490 -100 -98 -165 -140 -288 -183 -83 -30 -96 -32 -233 -32 -137 0 -150 2 -233 32 -123 43 -188 85 -288 183 -144 142 -207 285 -216 490 -5 97 -2 129 16 200 66 262 250 460 501 539 94 29 102 30 245 26 101 -2 144 -8 195 -25z m1582 -22 c45 -68 138 -161 206 -206 l52 -35 0 -446 0 -446 -47 -30 c-61 -38 -180 -157 -218 -218 l-30 -47 -618 0 -618 0 90 86 c169 161 257 337 282 565 31 288 -93 597 -314 780 l-58 49 619 0 619 0 35 -52z"/>
<path d="M3800 2474 c-341 -38 -594 -156 -806 -375 -138 -144 -236 -309 -293 -494 -42 -139 -54 -219 -53 -375 0 -360 146 -678 422 -925 119 -106 263 -187 425 -240 384 -126 797 -61 1118 178 318 235 507 607 507 997 0 288 -117 599 -305 810 -235 262 -536 407 -880 423 -55 3 -116 3 -135 1z m264 -179 c450 -79 804 -437 876 -888 20 -122 8 -340 -24 -452 -33 -114 -110 -271 -174 -355 -61 -81 -189 -203 -264 -253 -83 -55 -210 -112 -313 -143 -112 -32 -329 -44 -452 -24 -106 17 -242 63 -333 111 -518 280 -717 906 -454 1430 150 301 432 510 769 574 97 18 265 18 369 0z"/>
<path d="M3800 2065 l0 -85 -29 0 c-49 0 -152 -37 -206 -75 -63 -43 -108 -97 -143 -173 -24 -50 -27 -69 -27 -162 0 -97 2 -110 32 -172 41 -88 113 -160 201 -201 64 -30 75 -32 227 -37 178 -7 223 -20 283 -79 46 -47 64 -86 70 -156 8 -112 -58 -213 -166 -249 -54 -19 -246 -22 -306 -5 -90 25 -156 96 -178 189 l-11 50 -80 0 -79 0 4 -53 c6 -75 56 -176 118 -237 61 -62 162 -112 237 -118 l53 -4 0 -84 0 -84 80 0 79 0 3 83 3 82 50 7 c304 39 458 379 289 634 -46 69 -115 125 -191 155 -48 18 -86 23 -218 29 -176 7 -211 16 -270 75 -49 50 -69 101 -69 175 0 77 23 129 82 182 59 53 98 63 252 63 133 0 136 -1 190 -31 66 -37 116 -105 126 -169 l6 -45 84 0 84 0 -6 33 c-27 162 -99 269 -224 332 -43 22 -125 45 -162 45 l-28 0 0 85 0 85 -80 0 -80 0 0 -85z"/>
<path d="M3060 1240 l0 -80 80 0 80 0 0 80 0 80 -80 0 -80 0 0 -80z"/>
<path d="M4540 1240 l0 -80 85 0 85 0 0 80 0 80 -85 0 -85 0 0 -80z"/>
<path d="M168 1903 l-3 -248 -82 -3 -83 -3 0 -329 0 -330 85 0 85 0 -2 -162 -3 -163 -82 -3 -83 -3 0 -329 0 -330 1240 0 1240 0 0 250 0 250 80 0 80 0 0 330 0 330 -80 0 -80 0 0 165 0 165 80 0 80 0 0 330 0 330 -1235 0 -1235 0 -2 -247z m332 -3 l0 -80 80 0 80 0 0 80 0 80 85 0 85 0 0 -80 0 -80 80 0 80 0 0 80 0 80 85 0 85 0 0 -80 0 -80 80 0 80 0 0 80 0 80 85 0 85 0 0 -80 0 -80 80 0 80 0 0 80 0 80 85 0 85 0 0 -80 0 -80 80 0 80 0 0 80 0 80 85 0 85 0 0 -80 0 -80 80 0 80 0 0 80 0 80 85 0 85 0 0 -165 0 -165 -1075 0 -1075 0 0 165 0 165 85 0 85 0 0 -80z m-170 -495 l0 -86 83 3 82 3 3 83 3 82 79 0 80 0 0 -85 0 -85 85 0 85 0 0 85 0 85 80 0 80 0 0 -85 0 -85 85 0 85 0 0 85 0 85 80 0 80 0 0 -85 0 -85 85 0 85 0 0 85 0 85 80 0 80 0 0 -85 0 -85 85 0 85 0 0 85 0 85 80 0 80 0 0 -85 0 -85 85 0 85 0 0 85 0 85 80 0 80 0 0 -165 0 -165 -1070 0 -1070 0 0 165 0 165 80 0 80 0 0 -85z m170 -495 l0 -80 80 0 80 0 0 80 0 80 85 0 85 0 0 -80 0 -80 80 0 80 0 0 80 0 80 85 0 85 0 0 -80 0 -80 80 0 80 0 0 80 0 80 85 0 85 0 0 -80 0 -80 80 0 80 0 0 80 0 80 85 0 85 0 0 -80 0 -80 80 0 80 0 0 80 0 80 85 0 85 0 0 -80 0 -80 80 0 80 0 0 80 0 80 85 0 85 0 0 -165 0 -165 -1075 0 -1075 0 0 165 0 165 85 0 85 0 0 -80z m-170 -495 l0 -85 85 0 85 0 0 85 0 85 80 0 80 0 0 -85 0 -85 85 0 85 0 0 85 0 85 80 0 80 0 0 -85 0 -85 85 0 85 0 0 85 0 85 80 0 80 0 0 -85 0 -85 85 0 85 0 0 85 0 85 80 0 80 0 0 -85 0 -85 85 0 85 0 0 85 0 85 80 0 80 0 0 -85 0 -85 85 0 85 0 0 85 0 85 80 0 80 0 0 -165 0 -165 -1070 0 -1070 0 0 165 0 165 80 0 80 0 0 -85z"/>
</g>
</svg>