<svg xmlns="http://www.w3.org/2000/svg" version="1.0" width="512.000000pt" height="512.000000pt" viewBox="0 0 512.000000 512.000000" preserveAspectRatio="xMidYMid meet">

<g transform="translate(0.000000,512.000000) scale(0.100000,-0.100000)" fill="orange" stroke="none">
<path d="M390 5104 c-144 -39 -256 -152 -294 -299 -14 -52 -16 -250 -16 -1706 0 -1612 0 -1648 20 -1711 45 -147 164 -258 310 -289 l50 -11 0 -449 0 -449 28 -31 c40 -44 78 -43 188 10 l89 42 119 -50 c65 -28 125 -51 133 -51 8 0 67 23 131 50 l115 51 118 -51 c65 -27 125 -50 135 -50 10 0 66 23 124 50 l107 50 107 -46 c98 -42 109 -45 142 -34 21 7 43 25 55 44 18 29 19 55 19 472 l0 441 62 17 c81 23 135 55 196 119 91 97 111 159 121 370 l6 149 44 -79 c24 -43 51 -86 59 -95 13 -16 13 -28 -3 -105 -20 -105 -21 -179 -1 -227 23 -54 92 -123 144 -143 62 -24 155 -22 205 3 l38 20 43 -42 c71 -67 163 -89 258 -60 l46 13 35 -89 c84 -211 228 -420 405 -589 93 -89 117 -119 167 -208 32 -57 68 -112 79 -122 26 -25 57 -24 90 2 42 33 35 67 -40 198 -59 103 -82 131 -198 246 -153 152 -235 262 -317 430 -117 239 -144 365 -164 760 -22 439 -22 440 -46 487 -12 24 -78 141 -146 261 -139 242 -149 271 -113 334 28 50 66 73 123 73 72 0 100 -27 193 -189 46 -80 89 -148 96 -153 44 -28 118 9 118 59 0 32 -153 298 -199 347 -87 92 -225 114 -342 53 -145 -74 -198 -241 -124 -388 15 -30 82 -148 148 -264 l121 -210 7 -140 c7 -134 7 -141 -13 -156 -11 -9 -86 -53 -167 -97 -122 -69 -154 -82 -191 -82 -53 0 -97 24 -132 72 -14 18 -154 260 -312 538 -159 278 -297 513 -308 523 -27 23 -59 22 -92 -4 -42 -33 -35 -66 44 -200 39 -66 70 -122 70 -125 0 -3 -9 0 -19 6 -11 5 -79 10 -151 10 -146 0 -173 -8 -212 -62 -21 -30 -23 -43 -23 -153 0 -134 9 -159 68 -195 28 -17 51 -20 167 -20 116 0 139 3 167 20 53 32 64 59 70 170 l6 100 74 -130 75 -131 -4 -277 c-3 -263 -5 -280 -26 -327 -28 -60 -72 -109 -127 -138 -40 -22 -41 -22 -865 -25 -904 -3 -871 -5 -949 57 -20 16 -50 53 -67 83 l-29 53 -3 1648 c-1 1103 1 1662 8 1687 17 64 70 130 130 164 l55 31 819 3 c917 3 875 6 959 -68 26 -23 54 -61 68 -92 23 -52 24 -58 24 -363 l0 -309 -72 -43 -73 -43 0 183 c-1 212 -7 252 -50 290 l-30 27 -801 0 c-878 0 -842 2 -874 -60 -12 -23 -15 -69 -15 -218 0 -184 1 -189 23 -210 33 -31 80 -29 106 4 19 24 21 40 21 180 l0 154 735 0 735 0 0 -215 0 -215 -37 -24 c-21 -13 -103 -61 -183 -106 -161 -91 -209 -131 -248 -205 -22 -42 -26 -64 -27 -130 0 -44 4 -90 8 -102 l8 -23 -495 0 -496 0 0 219 c0 199 -2 221 -19 242 -13 17 -29 23 -56 23 -27 0 -43 -6 -56 -23 -17 -21 -19 -44 -19 -270 0 -229 1 -248 20 -279 38 -63 32 -62 647 -62 l558 -1 85 -151 c106 -188 121 -208 165 -208 37 0 75 37 75 72 0 10 -53 112 -119 226 -152 266 -161 284 -161 327 0 45 21 94 51 121 36 32 1237 715 1275 726 41 11 100 -3 137 -32 15 -12 247 -408 543 -925 l517 -905 -5 -53 c-7 -82 -29 -105 -198 -201 -82 -47 -153 -86 -158 -86 -4 0 -30 38 -56 84 -54 93 -82 114 -129 97 -29 -11 -47 -39 -47 -71 0 -11 50 -108 111 -215 119 -207 137 -226 192 -206 49 19 61 75 27 126 -11 17 -20 35 -20 41 0 7 66 49 148 95 81 46 163 98 183 116 58 52 91 125 97 209 6 90 -6 125 -86 264 -33 57 -59 106 -57 108 5 6 312 -254 373 -316 184 -187 291 -445 292 -706 1 -50 -18 -281 -41 -512 l-43 -421 78 -137 c76 -135 95 -156 136 -156 28 0 70 43 70 72 0 12 -29 75 -65 139 l-65 116 41 394 c48 469 49 616 6 779 -48 179 -125 329 -244 473 -58 70 -119 124 -614 541 l-155 131 -334 585 c-368 644 -386 670 -491 706 -62 21 -147 23 -202 5 -21 -7 -129 -65 -239 -128 -110 -63 -206 -117 -214 -120 -12 -4 -14 30 -14 218 0 123 -5 257 -10 297 -23 174 -145 313 -315 358 -77 21 -1657 19 -1735 -2z m1610 -2909 l0 -65 -90 0 -90 0 0 65 0 65 90 0 90 0 0 -65z m1203 -712 c3 -65 14 -158 23 -207 l17 -90 -23 -18 c-49 -40 -138 -8 -160 56 -10 30 -7 56 15 168 14 73 29 141 32 151 5 18 59 57 79 57 7 0 13 -43 17 -117z m-283 -107 c-22 -100 -34 -121 -79 -142 -28 -13 -41 -14 -72 -5 -70 21 -91 74 -73 183 l6 37 82 -6 c46 -3 92 -1 106 5 48 20 49 17 30 -72z m-1000 -681 l0 -395 -37 16 c-21 9 -61 26 -90 36 l-51 20 -112 -51 c-61 -28 -114 -51 -118 -51 -5 0 -60 23 -123 50 -79 35 -122 49 -139 44 -14 -3 -71 -26 -128 -51 l-103 -46 -107 45 c-152 64 -142 63 -221 29 -38 -17 -72 -31 -75 -31 -3 0 -6 176 -6 390 l0 390 655 0 655 0 0 -395z"/>
<path d="M2672 3869 c-182 -27 -345 -146 -427 -312 -47 -96 -53 -134 -25 -170 16 -19 30 -27 54 -27 40 0 58 18 86 89 43 110 116 187 224 237 74 34 152 44 249 31 74 -9 79 -9 102 13 57 53 17 123 -76 134 -108 13 -125 14 -187 5z"/>
<path d="M2701 3569 c-92 -18 -176 -93 -203 -181 -14 -47 -1 -83 37 -100 36 -16 76 0 95 37 40 79 65 95 148 95 72 0 106 27 100 80 -6 59 -80 88 -177 69z"/>
<path d="M2757 3289 c-31 -18 -39 -55 -21 -97 22 -53 53 -82 86 -82 35 0 78 40 78 71 0 24 -35 87 -58 107 -19 15 -60 15 -85 1z"/>
<path d="M451 2962 c-57 -31 -71 -70 -71 -195 0 -125 13 -165 65 -197 28 -17 49 -20 170 -20 121 0 142 3 170 20 52 32 65 72 65 195 0 114 -8 141 -55 185 -25 24 -33 25 -168 28 -123 2 -146 0 -176 -16z m249 -197 l0 -65 -85 0 -85 0 0 65 0 65 85 0 85 0 0 -65z"/>
<path d="M1093 2960 c-53 -32 -63 -64 -63 -197 0 -99 3 -123 20 -150 34 -57 64 -65 225 -61 137 3 145 4 171 28 42 40 54 79 54 187 0 113 -15 154 -69 190 -31 21 -45 23 -170 23 -117 0 -140 -3 -168 -20z m257 -195 l0 -65 -85 0 -85 0 0 65 0 65 85 0 85 0 0 -65z"/>
<path d="M451 2392 c-57 -30 -71 -70 -71 -195 0 -125 13 -165 65 -197 28 -17 49 -20 170 -20 121 0 142 3 170 20 52 32 65 72 65 195 0 123 -19 173 -76 200 -50 23 -277 21 -323 -3z m249 -197 l0 -65 -85 0 -85 0 0 65 0 65 85 0 85 0 0 -65z"/>
<path d="M1093 2391 c-53 -33 -63 -65 -63 -198 0 -99 3 -123 20 -150 34 -57 64 -65 225 -61 137 3 145 4 171 28 42 39 54 80 54 185 0 105 -12 146 -54 185 -26 24 -34 25 -174 28 -132 2 -150 1 -179 -17z m257 -196 l0 -65 -85 0 -85 0 0 65 0 65 85 0 85 0 0 -65z"/>
<path d="M445 1820 c-53 -34 -65 -72 -65 -193 0 -125 13 -165 65 -197 28 -17 49 -20 165 -20 145 0 179 9 215 58 18 24 20 43 20 157 0 114 -2 133 -20 157 -36 49 -70 58 -217 58 -116 0 -137 -3 -163 -20z m255 -195 l0 -65 -85 0 -85 0 0 65 0 65 85 0 85 0 0 -65z"/>
<path d="M1093 1821 c-53 -33 -63 -65 -63 -198 0 -99 3 -123 20 -150 34 -57 64 -65 225 -61 137 3 145 4 171 28 42 39 54 80 54 185 0 105 -12 146 -54 185 -26 24 -34 25 -174 28 -132 2 -150 1 -179 -17z m257 -196 l0 -65 -85 0 -85 0 0 65 0 65 85 0 85 0 0 -65z"/>
<path d="M1743 1820 c-59 -36 -68 -60 -68 -195 0 -135 9 -159 68 -195 27 -17 51 -20 165 -20 148 0 175 8 214 62 21 30 23 43 23 153 0 110 -2 123 -23 153 -39 54 -66 62 -214 62 -114 0 -138 -3 -165 -20z m257 -195 l0 -65 -90 0 -90 0 0 65 0 65 90 0 90 0 0 -65z"/>
</g>
</svg>